<svg xmlns="http://www.w3.org/2000/svg" xmlns:xlink="http://www.w3.org/1999/xlink" width="500" zoomAndPan="magnify" viewBox="0 0 375 374.999991" height="500" preserveAspectRatio="xMidYMid meet" version="1.0"><defs><g/></defs><g fill="#000000" fill-opacity="1"><g transform="translate(99.77257, 203.848844)"><g><path d="M 11.765625 0 L 11.765625 -13.519531 L 21.382812 -13.519531 C 29.527344 -13.519531 34.050781 -19.003906 34.050781 -25.566406 C 34.050781 -32.183594 29.582031 -37.730469 21.382812 -37.730469 L 3.734375 -37.730469 L 3.734375 0 Z M 25.851562 -25.625 C 25.851562 -22.457031 23.472656 -20.421875 20.308594 -20.421875 L 11.765625 -20.421875 L 11.765625 -30.828125 L 20.308594 -30.828125 C 23.472656 -30.828125 25.851562 -28.734375 25.851562 -25.625 Z M 25.851562 -25.625 "/></g></g></g><g fill="#000000" fill-opacity="1"><g transform="translate(130.254344, 203.848844)"><g/></g></g><g fill="#000000" fill-opacity="1"><g transform="translate(139.923974, 203.848844)"><g><path d="M 44.628906 0 L 44.628906 -37.730469 L 33.316406 -37.730469 L 24.152344 -14.199219 L 14.988281 -37.730469 L 3.734375 -37.730469 L 3.734375 0 L 11.765625 0 L 11.765625 -27.152344 L 22.398438 0 L 25.90625 0 L 36.539062 -27.152344 L 36.539062 0 Z M 44.628906 0 "/></g></g></g><g fill="#000000" fill-opacity="1"><g transform="translate(183.469891, 203.848844)"><g/></g></g><g fill="#000000" fill-opacity="1"><g transform="translate(193.139519, 203.848844)"><g><path d="M 1.132812 -5.316406 C 4.695312 -1.753906 9.898438 0.679688 17.140625 0.679688 C 27.320312 0.679688 32.242188 -4.523438 32.242188 -11.425781 C 32.242188 -19.796875 24.324219 -21.664062 18.101562 -23.078125 C 13.746094 -24.097656 10.578125 -24.886719 10.578125 -27.433594 C 10.578125 -29.695312 12.5 -31.28125 16.121094 -31.28125 C 19.796875 -31.28125 23.871094 -29.980469 26.925781 -27.152344 L 31.394531 -33.035156 C 27.660156 -36.484375 22.683594 -38.292969 16.6875 -38.292969 C 7.804688 -38.292969 2.375 -33.203125 2.375 -26.925781 C 2.375 -18.496094 10.292969 -16.800781 16.460938 -15.386719 C 20.816406 -14.367188 24.097656 -13.40625 24.097656 -10.578125 C 24.097656 -8.429688 21.945312 -6.335938 17.535156 -6.335938 C 12.332031 -6.335938 8.203125 -8.65625 5.542969 -11.425781 Z M 1.132812 -5.316406 "/></g></g></g><g fill="#000000" fill-opacity="1"><g transform="translate(222.263975, 203.848844)"><g/></g></g><g fill="#000000" fill-opacity="1"><g transform="translate(231.933602, 203.848844)"><g><path d="M 1.921875 -18.835938 C 1.921875 -7.464844 10.238281 0.679688 21.609375 0.679688 C 33.035156 0.679688 41.347656 -7.464844 41.347656 -18.835938 C 41.347656 -30.207031 33.035156 -38.351562 21.609375 -38.351562 C 10.238281 -38.351562 1.921875 -30.207031 1.921875 -18.835938 Z M 33.089844 -18.835938 C 33.089844 -11.820312 28.566406 -6.449219 21.609375 -6.449219 C 14.648438 -6.449219 10.183594 -11.820312 10.183594 -18.835938 C 10.183594 -25.90625 14.648438 -31.222656 21.609375 -31.222656 C 28.566406 -31.222656 33.089844 -25.90625 33.089844 -18.835938 Z M 33.089844 -18.835938 "/></g></g></g><path stroke-linecap="butt" transform="matrix(0.75, 0, 0, 0.75, 74.004784, 228.073139)" fill="none" stroke-linejoin="miter" d="M -0.00117092 5.001439 L 84.431126 5.001439 " stroke="#292929" stroke-width="10" stroke-opacity="1" stroke-miterlimit="4"/><path stroke-linecap="butt" transform="matrix(0, 0.75, -0.75, 0, 81.500939, 171.479446)" fill="none" stroke-linejoin="miter" d="M 0.00136321 5.001253 L 82.46491 5.001253 " stroke="#292929" stroke-width="10" stroke-opacity="1" stroke-miterlimit="4"/><path stroke-linecap="butt" transform="matrix(-0.75, 0, 0, -0.75, 296.123392, 146.919146)" fill="none" stroke-linejoin="miter" d="M -0.00214366 5.00157 L 84.435362 5.00157 " stroke="#292929" stroke-width="10" stroke-opacity="1" stroke-miterlimit="4"/><path stroke-linecap="butt" transform="matrix(0, -0.75, 0.75, 0, 288.627233, 203.512837)" fill="none" stroke-linejoin="miter" d="M 0.00149105 5.002232 L 82.465038 5.002232 " stroke="#292929" stroke-width="10" stroke-opacity="1" stroke-miterlimit="4"/><g fill="#292929" fill-opacity="1"><g transform="translate(93.680564, 219.202265)"><g><path d="M 0.957031 0 L 3.546875 0 C 3.757812 0 3.828125 -0.0820312 3.828125 -0.308594 L 3.828125 -0.554688 C 3.828125 -0.78125 3.757812 -0.863281 3.546875 -0.875 L 2.53125 -0.945312 L 2.53125 -2.847656 L 3.378906 -2.847656 C 5.851562 -2.859375 6.914062 -3.6875 6.914062 -5.496094 C 6.914062 -7.410156 6.085938 -8.261719 4.101562 -8.273438 L 0.957031 -8.273438 C 0.734375 -8.273438 0.671875 -8.191406 0.671875 -7.976562 L 0.671875 -7.707031 C 0.671875 -7.480469 0.746094 -7.398438 0.957031 -7.398438 L 1.5 -7.328125 L 1.5 -0.945312 L 0.957031 -0.875 C 0.746094 -0.863281 0.671875 -0.78125 0.671875 -0.554688 L 0.671875 -0.308594 C 0.671875 -0.0820312 0.734375 0 0.957031 0 Z M 2.53125 -3.699219 L 2.53125 -7.398438 L 3.640625 -7.398438 C 5.613281 -7.398438 5.921875 -6.75 5.921875 -5.460938 C 5.921875 -4.242188 5.1875 -3.699219 3.414062 -3.699219 Z M 2.53125 -3.699219 "/></g></g></g><g fill="#292929" fill-opacity="1"><g transform="translate(101.146037, 219.202265)"><g><path d="M 0.957031 0 L 3.664062 0 C 3.878906 0 3.949219 -0.0820312 3.949219 -0.308594 L 3.949219 -0.4375 C 3.949219 -0.660156 3.878906 -0.746094 3.675781 -0.757812 L 2.824219 -0.816406 L 2.824219 -9.113281 C 2.824219 -9.300781 2.683594 -9.457031 2.492188 -9.457031 L 0.957031 -9.457031 C 0.734375 -9.457031 0.671875 -9.375 0.671875 -9.148438 L 0.671875 -8.972656 C 0.671875 -8.746094 0.746094 -8.664062 0.957031 -8.664062 L 1.808594 -8.617188 L 1.808594 -0.816406 L 0.957031 -0.757812 C 0.746094 -0.746094 0.671875 -0.660156 0.671875 -0.4375 L 0.671875 -0.308594 C 0.671875 -0.0820312 0.734375 0 0.957031 0 Z M 0.957031 0 "/></g></g></g><g fill="#292929" fill-opacity="1"><g transform="translate(105.764701, 219.202265)"><g><path d="M 2.730469 0.140625 C 3.902344 0.140625 4.539062 -0.34375 4.941406 -0.863281 C 5.011719 -0.296875 5.460938 0 6.183594 -0.0351562 C 6.335938 -0.046875 6.429688 -0.199219 6.417969 -0.378906 L 6.394531 -0.660156 C 6.382812 -0.792969 6.300781 -0.910156 6.171875 -0.933594 C 5.78125 -0.992188 5.734375 -1.511719 5.734375 -2.222656 L 5.722656 -4.8125 C 5.722656 -6.074219 4.835938 -6.691406 3.0625 -6.65625 C 1.820312 -6.621094 0.886719 -6.132812 0.886719 -5.105469 C 0.886719 -4.480469 1.195312 -4.136719 1.726562 -4.125 C 2.246094 -4.125 2.480469 -4.324219 2.480469 -4.8125 C 2.480469 -5.261719 2.28125 -5.4375 1.855469 -5.402344 C 1.925781 -5.734375 2.554688 -5.875 3.0625 -5.886719 C 4.230469 -5.910156 4.703125 -5.378906 4.703125 -4.917969 C 4.703125 -4.457031 4.421875 -4.007812 2.929688 -3.746094 C 1.453125 -3.464844 0.671875 -2.90625 0.671875 -1.761719 C 0.671875 -0.566406 1.464844 0.140625 2.730469 0.140625 Z M 1.691406 -1.808594 C 1.667969 -2.457031 2.175781 -2.835938 3.015625 -2.980469 C 3.757812 -3.085938 4.597656 -3.320312 4.726562 -3.617188 L 4.714844 -2.269531 C 4.703125 -1.371094 4.019531 -0.734375 2.980469 -0.6875 C 2.1875 -0.636719 1.703125 -1.085938 1.691406 -1.808594 Z M 1.691406 -1.808594 "/></g></g></g><g fill="#292929" fill-opacity="1"><g transform="translate(112.426924, 219.202265)"><g><path d="M 3.414062 0.175781 C 3.9375 0.175781 4.242188 0.128906 4.492188 -0.0117188 C 4.5625 -0.0703125 4.5625 -0.210938 4.503906 -0.34375 L 4.324219 -0.6875 C 4.21875 -0.839844 4.125 -0.863281 4.019531 -0.839844 C 3.488281 -0.710938 2.445312 -0.734375 2.445312 -1.855469 L 2.433594 -5.625 L 4.148438 -5.625 C 4.351562 -5.625 4.421875 -5.722656 4.421875 -5.933594 L 4.421875 -6.195312 C 4.421875 -6.40625 4.351562 -6.5 4.148438 -6.5 L 2.433594 -6.5 L 2.433594 -7.695312 C 2.433594 -7.859375 2.316406 -7.992188 2.164062 -7.992188 L 1.714844 -7.992188 C 1.546875 -7.992188 1.429688 -7.859375 1.429688 -7.695312 L 1.429688 -6.5 L 1.074219 -6.5 C 0.863281 -6.5 0.792969 -6.40625 0.792969 -6.195312 L 0.792969 -5.933594 C 0.792969 -5.722656 0.875 -5.625 1.074219 -5.625 L 1.429688 -5.625 L 1.429688 -1.75 C 1.429688 -0.320312 2.292969 0.175781 3.414062 0.175781 Z M 3.414062 0.175781 "/></g></g></g><g fill="#292929" fill-opacity="1"><g transform="translate(117.636217, 219.202265)"><g><path d="M 0.957031 0 L 3.664062 0 C 3.878906 0 3.949219 -0.0820312 3.949219 -0.308594 L 3.949219 -0.4375 C 3.949219 -0.660156 3.878906 -0.746094 3.675781 -0.757812 L 2.824219 -0.828125 L 2.824219 -5.710938 L 4.3125 -5.710938 C 4.527344 -5.710938 4.597656 -5.804688 4.597656 -6.015625 L 4.597656 -6.195312 C 4.597656 -6.40625 4.515625 -6.5 4.3125 -6.5 L 2.742188 -6.5 L 2.683594 -7.789062 C 2.636719 -8.792969 3.203125 -9.066406 4.007812 -9.066406 C 4.539062 -9.066406 4.824219 -8.828125 4.871094 -8.617188 C 4.457031 -8.640625 4.265625 -8.402344 4.265625 -7.976562 C 4.265625 -7.503906 4.5625 -7.304688 5.082031 -7.304688 C 5.460938 -7.328125 5.746094 -7.648438 5.746094 -8.179688 C 5.746094 -9.207031 4.976562 -9.847656 4.007812 -9.847656 C 2.882812 -9.847656 1.808594 -9.351562 1.808594 -7.90625 L 1.808594 -6.5 L 1.253906 -6.5 C 1.050781 -6.5 0.957031 -6.40625 0.957031 -6.195312 L 0.957031 -6.015625 C 0.957031 -5.804688 1.039062 -5.710938 1.242188 -5.710938 L 1.808594 -5.710938 L 1.808594 -0.828125 L 0.957031 -0.757812 C 0.746094 -0.746094 0.671875 -0.660156 0.671875 -0.4375 L 0.671875 -0.308594 C 0.671875 -0.0820312 0.734375 0 0.957031 0 Z M 0.957031 0 "/></g></g></g><g fill="#292929" fill-opacity="1"><g transform="translate(122.774637, 219.202265)"><g><path d="M 3.628906 0.210938 C 5.601562 0.210938 6.464844 -0.828125 6.464844 -3.203125 C 6.464844 -5.625 5.601562 -6.691406 3.628906 -6.691406 C 1.632812 -6.691406 0.757812 -5.625 0.757812 -3.203125 C 0.757812 -0.828125 1.632812 0.210938 3.628906 0.210938 Z M 1.785156 -3.203125 C 1.785156 -4.953125 2.351562 -5.722656 3.628906 -5.722656 C 4.882812 -5.722656 5.449219 -4.953125 5.449219 -3.203125 C 5.449219 -1.488281 4.882812 -0.746094 3.628906 -0.746094 C 2.351562 -0.746094 1.785156 -1.488281 1.785156 -3.203125 Z M 1.785156 -3.203125 "/></g></g></g><g fill="#292929" fill-opacity="1"><g transform="translate(130.003858, 219.202265)"><g><path d="M 0.769531 0 L 3.617188 0 C 3.839844 0 3.902344 -0.0820312 3.902344 -0.308594 L 3.902344 -0.4375 C 3.902344 -0.660156 3.828125 -0.746094 3.617188 -0.757812 L 2.636719 -0.816406 L 2.648438 -3.367188 C 2.648438 -4.964844 3.429688 -5.671875 4.339844 -5.671875 C 4.644531 -5.671875 4.882812 -5.566406 4.882812 -5.4375 C 4.503906 -5.460938 4.230469 -5.234375 4.230469 -4.8125 C 4.230469 -4.363281 4.445312 -4.160156 4.976562 -4.160156 C 5.449219 -4.183594 5.992188 -4.527344 5.992188 -5.1875 C 5.992188 -6.382812 5.082031 -6.691406 4.433594 -6.691406 C 3.851562 -6.691406 2.992188 -6.289062 2.636719 -5.671875 C 2.636719 -5.875 2.613281 -6.085938 2.589844 -6.277344 C 2.554688 -6.40625 2.445312 -6.5 2.304688 -6.5 L 0.769531 -6.5 C 0.554688 -6.5 0.496094 -6.417969 0.496094 -6.195312 L 0.496094 -6.015625 C 0.496094 -5.792969 0.554688 -5.710938 0.769531 -5.710938 L 1.621094 -5.671875 L 1.621094 -0.816406 L 0.769531 -0.757812 C 0.554688 -0.746094 0.496094 -0.660156 0.496094 -0.4375 L 0.496094 -0.308594 C 0.496094 -0.0820312 0.554688 0 0.769531 0 Z M 0.769531 0 "/></g></g></g><g fill="#292929" fill-opacity="1"><g transform="translate(136.488892, 219.202265)"><g><path d="M 0.945312 0 L 3.582031 0 C 3.734375 0 3.792969 -0.0820312 3.792969 -0.308594 L 3.792969 -0.4375 C 3.792969 -0.660156 3.734375 -0.746094 3.59375 -0.757812 L 2.800781 -0.816406 L 2.800781 -2.859375 C 2.800781 -4.847656 3.238281 -5.722656 4.21875 -5.722656 C 5.117188 -5.722656 5.402344 -5.210938 5.414062 -3.453125 L 5.414062 -0.816406 L 4.621094 -0.757812 C 4.480469 -0.746094 4.421875 -0.660156 4.421875 -0.4375 L 4.421875 -0.308594 C 4.421875 -0.0820312 4.480469 0 4.632812 0 L 7.054688 0 C 7.199219 0 7.269531 -0.0820312 7.269531 -0.308594 L 7.269531 -0.4375 C 7.269531 -0.660156 7.210938 -0.746094 7.054688 -0.757812 L 6.429688 -0.816406 L 6.429688 -2.859375 C 6.429688 -4.847656 6.855469 -5.722656 7.835938 -5.722656 C 8.746094 -5.722656 9.019531 -5.222656 9.03125 -3.453125 L 9.042969 -0.828125 L 8.25 -0.757812 C 8.109375 -0.746094 8.050781 -0.660156 8.050781 -0.4375 L 8.050781 -0.308594 C 8.050781 -0.0820312 8.109375 0 8.25 0 L 10.746094 0 C 10.957031 0 11.027344 -0.0820312 11.027344 -0.308594 L 11.027344 -0.4375 C 11.027344 -0.660156 10.96875 -0.746094 10.746094 -0.757812 L 10.058594 -0.828125 L 10.058594 -3.476562 C 10.046875 -5.992188 9.433594 -6.691406 8.085938 -6.691406 C 7.316406 -6.691406 6.703125 -6.488281 6.21875 -5.367188 C 5.945312 -6.382812 5.378906 -6.691406 4.457031 -6.691406 C 3.6875 -6.691406 3.226562 -6.394531 2.800781 -5.671875 C 2.800781 -5.875 2.789062 -6.085938 2.753906 -6.277344 C 2.730469 -6.40625 2.613281 -6.5 2.480469 -6.5 L 0.945312 -6.5 C 0.734375 -6.5 0.660156 -6.417969 0.660156 -6.195312 L 0.660156 -6.015625 C 0.660156 -5.792969 0.734375 -5.710938 0.933594 -5.710938 L 1.785156 -5.671875 L 1.785156 -0.816406 L 0.933594 -0.757812 C 0.734375 -0.746094 0.660156 -0.660156 0.660156 -0.4375 L 0.660156 -0.308594 C 0.660156 -0.0820312 0.734375 0 0.945312 0 Z M 0.945312 0 "/></g></g></g><g fill="#292929" fill-opacity="1"><g transform="translate(148.029651, 219.202265)"><g/></g></g><g fill="#292929" fill-opacity="1"><g transform="translate(152.979072, 219.202265)"><g><path d="M 0.957031 0 L 3.6875 0 C 3.828125 0 3.890625 -0.0820312 3.890625 -0.308594 L 3.890625 -0.4375 C 3.890625 -0.660156 3.828125 -0.746094 3.6875 -0.757812 L 2.835938 -0.816406 L 2.835938 -6.855469 L 5.210938 -0.140625 C 5.261719 0 5.296875 0.0234375 5.402344 0.0234375 L 5.734375 0.0234375 C 5.839844 0.0234375 5.875 0 5.933594 -0.152344 L 8.296875 -6.855469 L 8.296875 -0.816406 L 7.445312 -0.757812 C 7.304688 -0.746094 7.234375 -0.660156 7.234375 -0.4375 L 7.234375 -0.308594 C 7.234375 -0.0820312 7.304688 0 7.445312 0 L 10.175781 0 C 10.390625 0 10.460938 -0.0820312 10.460938 -0.308594 L 10.460938 -0.4375 C 10.460938 -0.660156 10.390625 -0.746094 10.175781 -0.757812 L 9.324219 -0.816406 L 9.324219 -7.445312 L 10.175781 -7.480469 C 10.390625 -7.480469 10.460938 -7.566406 10.460938 -7.789062 L 10.460938 -7.964844 C 10.460938 -8.191406 10.390625 -8.273438 10.175781 -8.273438 L 8.085938 -8.273438 C 7.976562 -8.273438 7.871094 -8.214844 7.835938 -8.109375 L 5.566406 -2.019531 L 3.296875 -8.109375 C 3.25 -8.214844 3.15625 -8.273438 3.050781 -8.273438 L 0.957031 -8.273438 C 0.734375 -8.273438 0.671875 -8.191406 0.671875 -7.964844 L 0.671875 -7.789062 C 0.671875 -7.566406 0.746094 -7.480469 0.957031 -7.480469 L 1.808594 -7.445312 L 1.808594 -0.816406 L 0.957031 -0.757812 C 0.746094 -0.746094 0.671875 -0.660156 0.671875 -0.4375 L 0.671875 -0.308594 C 0.671875 -0.0820312 0.734375 0 0.957031 0 Z M 0.957031 0 "/></g></g></g><g fill="#292929" fill-opacity="1"><g transform="translate(164.106402, 219.202265)"><g><path d="M 2.730469 0.140625 C 3.902344 0.140625 4.539062 -0.34375 4.941406 -0.863281 C 5.011719 -0.296875 5.460938 0 6.183594 -0.0351562 C 6.335938 -0.046875 6.429688 -0.199219 6.417969 -0.378906 L 6.394531 -0.660156 C 6.382812 -0.792969 6.300781 -0.910156 6.171875 -0.933594 C 5.78125 -0.992188 5.734375 -1.511719 5.734375 -2.222656 L 5.722656 -4.8125 C 5.722656 -6.074219 4.835938 -6.691406 3.0625 -6.65625 C 1.820312 -6.621094 0.886719 -6.132812 0.886719 -5.105469 C 0.886719 -4.480469 1.195312 -4.136719 1.726562 -4.125 C 2.246094 -4.125 2.480469 -4.324219 2.480469 -4.8125 C 2.480469 -5.261719 2.28125 -5.4375 1.855469 -5.402344 C 1.925781 -5.734375 2.554688 -5.875 3.0625 -5.886719 C 4.230469 -5.910156 4.703125 -5.378906 4.703125 -4.917969 C 4.703125 -4.457031 4.421875 -4.007812 2.929688 -3.746094 C 1.453125 -3.464844 0.671875 -2.90625 0.671875 -1.761719 C 0.671875 -0.566406 1.464844 0.140625 2.730469 0.140625 Z M 1.691406 -1.808594 C 1.667969 -2.457031 2.175781 -2.835938 3.015625 -2.980469 C 3.757812 -3.085938 4.597656 -3.320312 4.726562 -3.617188 L 4.714844 -2.269531 C 4.703125 -1.371094 4.019531 -0.734375 2.980469 -0.6875 C 2.1875 -0.636719 1.703125 -1.085938 1.691406 -1.808594 Z M 1.691406 -1.808594 "/></g></g></g><g fill="#292929" fill-opacity="1"><g transform="translate(170.768625, 219.202265)"><g><path d="M 0.945312 0 L 3.582031 0 C 3.734375 0 3.792969 -0.0820312 3.792969 -0.308594 L 3.792969 -0.4375 C 3.792969 -0.660156 3.734375 -0.746094 3.59375 -0.757812 L 2.800781 -0.816406 L 2.800781 -2.859375 C 2.800781 -4.847656 3.238281 -5.722656 4.289062 -5.722656 C 5.425781 -5.722656 5.710938 -5.210938 5.710938 -3.453125 L 5.722656 -0.816406 L 4.929688 -0.757812 C 4.785156 -0.746094 4.726562 -0.660156 4.726562 -0.4375 L 4.726562 -0.308594 C 4.726562 -0.0820312 4.785156 0 4.929688 0 L 7.433594 0 C 7.648438 0 7.707031 -0.0820312 7.707031 -0.308594 L 7.707031 -0.4375 C 7.707031 -0.660156 7.648438 -0.746094 7.421875 -0.757812 L 6.738281 -0.816406 L 6.738281 -3.476562 C 6.726562 -5.992188 6.109375 -6.691406 4.539062 -6.691406 C 3.6875 -6.691406 3.226562 -6.394531 2.800781 -5.671875 C 2.800781 -5.875 2.789062 -6.085938 2.753906 -6.277344 C 2.730469 -6.40625 2.613281 -6.5 2.480469 -6.5 L 0.945312 -6.5 C 0.734375 -6.5 0.660156 -6.417969 0.660156 -6.195312 L 0.660156 -6.015625 C 0.660156 -5.792969 0.734375 -5.710938 0.933594 -5.710938 L 1.785156 -5.671875 L 1.785156 -0.816406 L 0.933594 -0.757812 C 0.734375 -0.746094 0.660156 -0.660156 0.660156 -0.4375 L 0.660156 -0.308594 C 0.660156 -0.0820312 0.734375 0 0.945312 0 Z M 0.945312 0 "/></g></g></g><g fill="#292929" fill-opacity="1"><g transform="translate(178.990095, 219.202265)"><g><path d="M 2.730469 0.140625 C 3.902344 0.140625 4.539062 -0.34375 4.941406 -0.863281 C 5.011719 -0.296875 5.460938 0 6.183594 -0.0351562 C 6.335938 -0.046875 6.429688 -0.199219 6.417969 -0.378906 L 6.394531 -0.660156 C 6.382812 -0.792969 6.300781 -0.910156 6.171875 -0.933594 C 5.78125 -0.992188 5.734375 -1.511719 5.734375 -2.222656 L 5.722656 -4.8125 C 5.722656 -6.074219 4.835938 -6.691406 3.0625 -6.65625 C 1.820312 -6.621094 0.886719 -6.132812 0.886719 -5.105469 C 0.886719 -4.480469 1.195312 -4.136719 1.726562 -4.125 C 2.246094 -4.125 2.480469 -4.324219 2.480469 -4.8125 C 2.480469 -5.261719 2.28125 -5.4375 1.855469 -5.402344 C 1.925781 -5.734375 2.554688 -5.875 3.0625 -5.886719 C 4.230469 -5.910156 4.703125 -5.378906 4.703125 -4.917969 C 4.703125 -4.457031 4.421875 -4.007812 2.929688 -3.746094 C 1.453125 -3.464844 0.671875 -2.90625 0.671875 -1.761719 C 0.671875 -0.566406 1.464844 0.140625 2.730469 0.140625 Z M 1.691406 -1.808594 C 1.667969 -2.457031 2.175781 -2.835938 3.015625 -2.980469 C 3.757812 -3.085938 4.597656 -3.320312 4.726562 -3.617188 L 4.714844 -2.269531 C 4.703125 -1.371094 4.019531 -0.734375 2.980469 -0.6875 C 2.1875 -0.636719 1.703125 -1.085938 1.691406 -1.808594 Z M 1.691406 -1.808594 "/></g></g></g><g fill="#292929" fill-opacity="1"><g transform="translate(185.652318, 219.202265)"><g><path d="M 0.542969 2.917969 C 1.667969 2.917969 2.753906 2.421875 2.753906 0.992188 L 2.765625 -6.160156 C 2.765625 -6.347656 2.625 -6.5 2.433594 -6.5 L 0.898438 -6.5 C 0.6875 -6.5 0.613281 -6.417969 0.613281 -6.195312 L 0.613281 -6.015625 C 0.613281 -5.792969 0.6875 -5.710938 0.898438 -5.710938 L 1.75 -5.671875 L 1.75 0.566406 C 1.984375 1.84375 1.148438 2.140625 0.542969 2.140625 C 0.0234375 2.140625 -0.273438 1.902344 -0.308594 1.691406 C 0.09375 1.714844 0.296875 1.476562 0.296875 1.050781 C 0.296875 0.578125 0.09375 0.378906 -0.425781 0.378906 C -0.898438 0.402344 -1.265625 0.722656 -1.265625 1.253906 C -1.265625 2.363281 -0.414062 2.917969 0.542969 2.917969 Z M 1.335938 -8.769531 C 1.335938 -8.203125 1.546875 -7.917969 2.117188 -7.917969 C 2.683594 -7.917969 2.90625 -8.203125 2.90625 -8.769531 C 2.90625 -9.351562 2.683594 -9.621094 2.117188 -9.621094 C 1.546875 -9.621094 1.335938 -9.351562 1.335938 -8.769531 Z M 1.335938 -8.769531 "/></g></g></g><g fill="#292929" fill-opacity="1"><g transform="translate(189.621301, 219.202265)"><g><path d="M 3.628906 0.199219 C 4.621094 0.199219 5.722656 -0.152344 5.921875 -1.335938 C 5.957031 -1.609375 5.816406 -1.867188 5.554688 -1.867188 L 5.332031 -1.867188 C 5.128906 -1.867188 5.023438 -1.75 4.976562 -1.582031 C 4.859375 -0.921875 4.183594 -0.746094 3.628906 -0.746094 C 2.46875 -0.746094 1.855469 -1.476562 1.796875 -2.800781 L 5.648438 -2.824219 C 5.886719 -2.824219 6.085938 -3.003906 6.085938 -3.273438 C 6.015625 -5.601562 5.308594 -6.679688 3.476562 -6.679688 C 1.667969 -6.679688 0.757812 -5.792969 0.757812 -2.992188 C 0.757812 -0.804688 1.84375 0.199219 3.628906 0.199219 Z M 1.808594 -3.640625 C 1.867188 -5.070312 2.375 -5.695312 3.476562 -5.695312 C 4.644531 -5.695312 5.011719 -5.070312 5.046875 -3.640625 Z M 1.808594 -3.640625 "/></g></g></g><g fill="#292929" fill-opacity="1"><g transform="translate(196.460713, 219.202265)"><g><path d="M 0.945312 0 L 3.582031 0 C 3.734375 0 3.792969 -0.0820312 3.792969 -0.308594 L 3.792969 -0.4375 C 3.792969 -0.660156 3.734375 -0.746094 3.59375 -0.757812 L 2.800781 -0.816406 L 2.800781 -2.859375 C 2.800781 -4.847656 3.238281 -5.722656 4.21875 -5.722656 C 5.117188 -5.722656 5.402344 -5.210938 5.414062 -3.453125 L 5.414062 -0.816406 L 4.621094 -0.757812 C 4.480469 -0.746094 4.421875 -0.660156 4.421875 -0.4375 L 4.421875 -0.308594 C 4.421875 -0.0820312 4.480469 0 4.632812 0 L 7.054688 0 C 7.199219 0 7.269531 -0.0820312 7.269531 -0.308594 L 7.269531 -0.4375 C 7.269531 -0.660156 7.210938 -0.746094 7.054688 -0.757812 L 6.429688 -0.816406 L 6.429688 -2.859375 C 6.429688 -4.847656 6.855469 -5.722656 7.835938 -5.722656 C 8.746094 -5.722656 9.019531 -5.222656 9.03125 -3.453125 L 9.042969 -0.828125 L 8.25 -0.757812 C 8.109375 -0.746094 8.050781 -0.660156 8.050781 -0.4375 L 8.050781 -0.308594 C 8.050781 -0.0820312 8.109375 0 8.25 0 L 10.746094 0 C 10.957031 0 11.027344 -0.0820312 11.027344 -0.308594 L 11.027344 -0.4375 C 11.027344 -0.660156 10.96875 -0.746094 10.746094 -0.757812 L 10.058594 -0.828125 L 10.058594 -3.476562 C 10.046875 -5.992188 9.433594 -6.691406 8.085938 -6.691406 C 7.316406 -6.691406 6.703125 -6.488281 6.21875 -5.367188 C 5.945312 -6.382812 5.378906 -6.691406 4.457031 -6.691406 C 3.6875 -6.691406 3.226562 -6.394531 2.800781 -5.671875 C 2.800781 -5.875 2.789062 -6.085938 2.753906 -6.277344 C 2.730469 -6.40625 2.613281 -6.5 2.480469 -6.5 L 0.945312 -6.5 C 0.734375 -6.5 0.660156 -6.417969 0.660156 -6.195312 L 0.660156 -6.015625 C 0.660156 -5.792969 0.734375 -5.710938 0.933594 -5.710938 L 1.785156 -5.671875 L 1.785156 -0.816406 L 0.933594 -0.757812 C 0.734375 -0.746094 0.660156 -0.660156 0.660156 -0.4375 L 0.660156 -0.308594 C 0.660156 -0.0820312 0.734375 0 0.945312 0 Z M 0.945312 0 "/></g></g></g><g fill="#292929" fill-opacity="1"><g transform="translate(208.001472, 219.202265)"><g><path d="M 3.628906 0.199219 C 4.621094 0.199219 5.722656 -0.152344 5.921875 -1.335938 C 5.957031 -1.609375 5.816406 -1.867188 5.554688 -1.867188 L 5.332031 -1.867188 C 5.128906 -1.867188 5.023438 -1.75 4.976562 -1.582031 C 4.859375 -0.921875 4.183594 -0.746094 3.628906 -0.746094 C 2.46875 -0.746094 1.855469 -1.476562 1.796875 -2.800781 L 5.648438 -2.824219 C 5.886719 -2.824219 6.085938 -3.003906 6.085938 -3.273438 C 6.015625 -5.601562 5.308594 -6.679688 3.476562 -6.679688 C 1.667969 -6.679688 0.757812 -5.792969 0.757812 -2.992188 C 0.757812 -0.804688 1.84375 0.199219 3.628906 0.199219 Z M 1.808594 -3.640625 C 1.867188 -5.070312 2.375 -5.695312 3.476562 -5.695312 C 4.644531 -5.695312 5.011719 -5.070312 5.046875 -3.640625 Z M 1.808594 -3.640625 "/></g></g></g><g fill="#292929" fill-opacity="1"><g transform="translate(214.840884, 219.202265)"><g><path d="M 0.945312 0 L 3.582031 0 C 3.734375 0 3.792969 -0.0820312 3.792969 -0.308594 L 3.792969 -0.4375 C 3.792969 -0.660156 3.734375 -0.746094 3.59375 -0.757812 L 2.800781 -0.816406 L 2.800781 -2.859375 C 2.800781 -4.847656 3.238281 -5.722656 4.289062 -5.722656 C 5.425781 -5.722656 5.710938 -5.210938 5.710938 -3.453125 L 5.722656 -0.816406 L 4.929688 -0.757812 C 4.785156 -0.746094 4.726562 -0.660156 4.726562 -0.4375 L 4.726562 -0.308594 C 4.726562 -0.0820312 4.785156 0 4.929688 0 L 7.433594 0 C 7.648438 0 7.707031 -0.0820312 7.707031 -0.308594 L 7.707031 -0.4375 C 7.707031 -0.660156 7.648438 -0.746094 7.421875 -0.757812 L 6.738281 -0.816406 L 6.738281 -3.476562 C 6.726562 -5.992188 6.109375 -6.691406 4.539062 -6.691406 C 3.6875 -6.691406 3.226562 -6.394531 2.800781 -5.671875 C 2.800781 -5.875 2.789062 -6.085938 2.753906 -6.277344 C 2.730469 -6.40625 2.613281 -6.5 2.480469 -6.5 L 0.945312 -6.5 C 0.734375 -6.5 0.660156 -6.417969 0.660156 -6.195312 L 0.660156 -6.015625 C 0.660156 -5.792969 0.734375 -5.710938 0.933594 -5.710938 L 1.785156 -5.671875 L 1.785156 -0.816406 L 0.933594 -0.757812 C 0.734375 -0.746094 0.660156 -0.660156 0.660156 -0.4375 L 0.660156 -0.308594 C 0.660156 -0.0820312 0.734375 0 0.945312 0 Z M 0.945312 0 "/></g></g></g><g fill="#292929" fill-opacity="1"><g transform="translate(223.062354, 219.202265)"><g/></g></g><g fill="#292929" fill-opacity="1"><g transform="translate(228.011774, 219.202265)"><g><path d="M 3.582031 0.175781 C 5.589844 0.175781 6.65625 -0.496094 6.65625 -2.175781 C 6.65625 -3.414062 5.851562 -4.03125 4.195312 -4.667969 C 2.398438 -5.378906 1.925781 -5.769531 1.925781 -6.40625 C 1.925781 -7.175781 2.457031 -7.46875 3.570312 -7.46875 C 4.632812 -7.480469 5.222656 -7.007812 5.589844 -5.589844 C 5.671875 -5.308594 5.828125 -5.234375 6.015625 -5.234375 L 6.21875 -5.234375 C 6.488281 -5.234375 6.558594 -5.355469 6.558594 -5.625 L 6.582031 -7.871094 C 6.582031 -8.144531 6.488281 -8.261719 6.242188 -8.261719 L 6.132812 -8.261719 C 5.933594 -8.261719 5.839844 -8.167969 5.828125 -7.976562 L 5.804688 -6.996094 C 5.589844 -7.835938 4.785156 -8.414062 3.523438 -8.414062 C 1.773438 -8.414062 0.886719 -7.847656 0.898438 -6.417969 C 0.910156 -5.390625 1.488281 -4.585938 2.992188 -4.042969 C 4.726562 -3.378906 5.613281 -2.859375 5.613281 -2.199219 C 5.613281 -1.183594 4.859375 -0.769531 3.546875 -0.757812 C 2.433594 -0.757812 1.761719 -1.160156 1.84375 -2.800781 C 1.855469 -3.015625 1.667969 -3.097656 1.488281 -3.097656 L 1.21875 -3.097656 C 0.980469 -3.097656 0.875 -2.929688 0.863281 -2.671875 C 0.78125 -0.0703125 2.386719 0.175781 3.582031 0.175781 Z M 3.582031 0.175781 "/></g></g></g><g fill="#292929" fill-opacity="1"><g transform="translate(235.500868, 219.202265)"><g><path d="M 3.628906 0.199219 C 4.621094 0.199219 5.722656 -0.152344 5.921875 -1.335938 C 5.957031 -1.609375 5.816406 -1.867188 5.554688 -1.867188 L 5.332031 -1.867188 C 5.128906 -1.867188 5.023438 -1.75 4.976562 -1.582031 C 4.859375 -0.921875 4.183594 -0.746094 3.628906 -0.746094 C 2.46875 -0.746094 1.855469 -1.476562 1.796875 -2.800781 L 5.648438 -2.824219 C 5.886719 -2.824219 6.085938 -3.003906 6.085938 -3.273438 C 6.015625 -5.601562 5.308594 -6.679688 3.476562 -6.679688 C 1.667969 -6.679688 0.757812 -5.792969 0.757812 -2.992188 C 0.757812 -0.804688 1.84375 0.199219 3.628906 0.199219 Z M 1.808594 -3.640625 C 1.867188 -5.070312 2.375 -5.695312 3.476562 -5.695312 C 4.644531 -5.695312 5.011719 -5.070312 5.046875 -3.640625 Z M 1.808594 -3.640625 "/></g></g></g><g fill="#292929" fill-opacity="1"><g transform="translate(242.34028, 219.202265)"><g><path d="M 6.691406 0.175781 C 6.949219 0.175781 7.117188 0.0585938 7.117188 -0.164062 L 7.117188 -0.355469 C 7.117188 -0.589844 7.007812 -0.746094 6.75 -0.78125 C 5.695312 -0.839844 4.929688 -2.542969 4.242188 -3.925781 C 5.261719 -5.296875 5.578125 -5.695312 6.546875 -5.710938 C 6.808594 -5.722656 6.902344 -5.898438 6.902344 -6.160156 L 6.902344 -6.3125 C 6.902344 -6.535156 6.738281 -6.667969 6.476562 -6.65625 C 5 -6.632812 4.585938 -5.886719 3.441406 -4.289062 C 3.15625 -3.890625 2.789062 -3.390625 2.410156 -2.859375 L 2.410156 -9.113281 C 2.410156 -9.300781 2.269531 -9.457031 2.082031 -9.457031 L 0.542969 -9.457031 C 0.320312 -9.457031 0.261719 -9.375 0.261719 -9.148438 L 0.261719 -8.972656 C 0.261719 -8.746094 0.332031 -8.664062 0.542969 -8.664062 L 1.394531 -8.617188 L 1.394531 -0.816406 L 0.542969 -0.757812 C 0.332031 -0.746094 0.261719 -0.660156 0.261719 -0.4375 L 0.261719 -0.308594 C 0.261719 -0.0820312 0.320312 0 0.542969 0 L 3.214844 0 C 3.367188 0 3.429688 -0.0820312 3.429688 -0.308594 L 3.429688 -0.4375 C 3.429688 -0.660156 3.367188 -0.746094 3.226562 -0.757812 L 2.410156 -0.816406 L 2.410156 -1.441406 L 3.582031 -3.074219 C 4.207031 -1.984375 4.941406 0.140625 6.691406 0.175781 Z M 6.691406 0.175781 "/></g></g></g><g fill="#292929" fill-opacity="1"><g transform="translate(249.699437, 219.202265)"><g><path d="M 3.628906 0.210938 C 5.601562 0.210938 6.464844 -0.828125 6.464844 -3.203125 C 6.464844 -5.625 5.601562 -6.691406 3.628906 -6.691406 C 1.632812 -6.691406 0.757812 -5.625 0.757812 -3.203125 C 0.757812 -0.828125 1.632812 0.210938 3.628906 0.210938 Z M 1.785156 -3.203125 C 1.785156 -4.953125 2.351562 -5.722656 3.628906 -5.722656 C 4.882812 -5.722656 5.449219 -4.953125 5.449219 -3.203125 C 5.449219 -1.488281 4.882812 -0.746094 3.628906 -0.746094 C 2.351562 -0.746094 1.785156 -1.488281 1.785156 -3.203125 Z M 1.785156 -3.203125 "/></g></g></g><g fill="#292929" fill-opacity="1"><g transform="translate(256.928658, 219.202265)"><g><path d="M 0.957031 0 L 3.664062 0 C 3.878906 0 3.949219 -0.0820312 3.949219 -0.308594 L 3.949219 -0.4375 C 3.949219 -0.660156 3.878906 -0.746094 3.675781 -0.757812 L 2.824219 -0.816406 L 2.824219 -9.113281 C 2.824219 -9.300781 2.683594 -9.457031 2.492188 -9.457031 L 0.957031 -9.457031 C 0.734375 -9.457031 0.671875 -9.375 0.671875 -9.148438 L 0.671875 -8.972656 C 0.671875 -8.746094 0.746094 -8.664062 0.957031 -8.664062 L 1.808594 -8.617188 L 1.808594 -0.816406 L 0.957031 -0.757812 C 0.746094 -0.746094 0.671875 -0.660156 0.671875 -0.4375 L 0.671875 -0.308594 C 0.671875 -0.0820312 0.734375 0 0.957031 0 Z M 0.957031 0 "/></g></g></g><g fill="#292929" fill-opacity="1"><g transform="translate(261.547321, 219.202265)"><g><path d="M 2.730469 0.140625 C 3.902344 0.140625 4.539062 -0.34375 4.941406 -0.863281 C 5.011719 -0.296875 5.460938 0 6.183594 -0.0351562 C 6.335938 -0.046875 6.429688 -0.199219 6.417969 -0.378906 L 6.394531 -0.660156 C 6.382812 -0.792969 6.300781 -0.910156 6.171875 -0.933594 C 5.78125 -0.992188 5.734375 -1.511719 5.734375 -2.222656 L 5.722656 -4.8125 C 5.722656 -6.074219 4.835938 -6.691406 3.0625 -6.65625 C 1.820312 -6.621094 0.886719 -6.132812 0.886719 -5.105469 C 0.886719 -4.480469 1.195312 -4.136719 1.726562 -4.125 C 2.246094 -4.125 2.480469 -4.324219 2.480469 -4.8125 C 2.480469 -5.261719 2.28125 -5.4375 1.855469 -5.402344 C 1.925781 -5.734375 2.554688 -5.875 3.0625 -5.886719 C 4.230469 -5.910156 4.703125 -5.378906 4.703125 -4.917969 C 4.703125 -4.457031 4.421875 -4.007812 2.929688 -3.746094 C 1.453125 -3.464844 0.671875 -2.90625 0.671875 -1.761719 C 0.671875 -0.566406 1.464844 0.140625 2.730469 0.140625 Z M 1.691406 -1.808594 C 1.667969 -2.457031 2.175781 -2.835938 3.015625 -2.980469 C 3.757812 -3.085938 4.597656 -3.320312 4.726562 -3.617188 L 4.714844 -2.269531 C 4.703125 -1.371094 4.019531 -0.734375 2.980469 -0.6875 C 2.1875 -0.636719 1.703125 -1.085938 1.691406 -1.808594 Z M 1.691406 -1.808594 "/></g></g></g><g fill="#292929" fill-opacity="1"><g transform="translate(268.209545, 219.202265)"><g><path d="M 0.945312 0 L 3.582031 0 C 3.734375 0 3.792969 -0.0820312 3.792969 -0.308594 L 3.792969 -0.4375 C 3.792969 -0.660156 3.734375 -0.746094 3.59375 -0.757812 L 2.800781 -0.816406 L 2.800781 -2.859375 C 2.800781 -4.847656 3.238281 -5.722656 4.289062 -5.722656 C 5.425781 -5.722656 5.710938 -5.210938 5.710938 -3.453125 L 5.722656 -0.816406 L 4.929688 -0.757812 C 4.785156 -0.746094 4.726562 -0.660156 4.726562 -0.4375 L 4.726562 -0.308594 C 4.726562 -0.0820312 4.785156 0 4.929688 0 L 7.433594 0 C 7.648438 0 7.707031 -0.0820312 7.707031 -0.308594 L 7.707031 -0.4375 C 7.707031 -0.660156 7.648438 -0.746094 7.421875 -0.757812 L 6.738281 -0.816406 L 6.738281 -3.476562 C 6.726562 -5.992188 6.109375 -6.691406 4.410156 -6.691406 C 3.6875 -6.691406 3.226562 -6.394531 2.800781 -5.746094 L 2.800781 -9.113281 C 2.800781 -9.300781 2.660156 -9.457031 2.480469 -9.457031 L 0.945312 -9.457031 C 0.734375 -9.457031 0.660156 -9.375 0.660156 -9.148438 L 0.660156 -8.972656 C 0.660156 -8.746094 0.734375 -8.664062 0.933594 -8.664062 L 1.785156 -8.617188 L 1.785156 -0.816406 L 0.933594 -0.757812 C 0.734375 -0.746094 0.660156 -0.660156 0.660156 -0.4375 L 0.660156 -0.308594 C 0.660156 -0.0820312 0.734375 0 0.945312 0 Z M 0.945312 0 "/></g></g></g><g fill="#292929" fill-opacity="1"><g transform="translate(164.414935, 235.702264)"><g><path d="M 4.410156 -8.425781 C 1.867188 -8.425781 0.828125 -6.984375 0.828125 -4.066406 C 0.828125 -1.207031 1.867188 0.210938 4.410156 0.210938 C 6.925781 0.210938 7.953125 -1.207031 7.953125 -4.066406 C 7.953125 -6.984375 6.925781 -8.425781 4.410156 -8.425781 Z M 1.855469 -4.042969 C 1.855469 -6.335938 2.742188 -7.480469 4.410156 -7.480469 C 6.0625 -7.480469 6.925781 -6.335938 6.925781 -4.042969 C 6.925781 -1.808594 6.0625 -0.710938 4.410156 -0.710938 C 2.742188 -0.710938 1.855469 -1.808594 1.855469 -4.042969 Z M 1.855469 -4.042969 "/></g></g></g><g fill="#292929" fill-opacity="1"><g transform="translate(173.19158, 235.702264)"><g><path d="M 0.945312 0 L 3.582031 0 C 3.734375 0 3.792969 -0.0820312 3.792969 -0.308594 L 3.792969 -0.4375 C 3.792969 -0.660156 3.734375 -0.746094 3.59375 -0.757812 L 2.800781 -0.816406 L 2.800781 -2.859375 C 2.800781 -4.847656 3.238281 -5.722656 4.289062 -5.722656 C 5.425781 -5.722656 5.710938 -5.210938 5.710938 -3.453125 L 5.722656 -0.816406 L 4.929688 -0.757812 C 4.785156 -0.746094 4.726562 -0.660156 4.726562 -0.4375 L 4.726562 -0.308594 C 4.726562 -0.0820312 4.785156 0 4.929688 0 L 7.433594 0 C 7.648438 0 7.707031 -0.0820312 7.707031 -0.308594 L 7.707031 -0.4375 C 7.707031 -0.660156 7.648438 -0.746094 7.421875 -0.757812 L 6.738281 -0.816406 L 6.738281 -3.476562 C 6.726562 -5.992188 6.109375 -6.691406 4.539062 -6.691406 C 3.6875 -6.691406 3.226562 -6.394531 2.800781 -5.671875 C 2.800781 -5.875 2.789062 -6.085938 2.753906 -6.277344 C 2.730469 -6.40625 2.613281 -6.5 2.480469 -6.5 L 0.945312 -6.5 C 0.734375 -6.5 0.660156 -6.417969 0.660156 -6.195312 L 0.660156 -6.015625 C 0.660156 -5.792969 0.734375 -5.710938 0.933594 -5.710938 L 1.785156 -5.671875 L 1.785156 -0.816406 L 0.933594 -0.757812 C 0.734375 -0.746094 0.660156 -0.660156 0.660156 -0.4375 L 0.660156 -0.308594 C 0.660156 -0.0820312 0.734375 0 0.945312 0 Z M 0.945312 0 "/></g></g></g><g fill="#292929" fill-opacity="1"><g transform="translate(181.413049, 235.702264)"><g><path d="M 0.957031 0 L 3.664062 0 C 3.878906 0 3.949219 -0.0820312 3.949219 -0.308594 L 3.949219 -0.4375 C 3.949219 -0.660156 3.878906 -0.746094 3.675781 -0.757812 L 2.824219 -0.816406 L 2.824219 -9.113281 C 2.824219 -9.300781 2.683594 -9.457031 2.492188 -9.457031 L 0.957031 -9.457031 C 0.734375 -9.457031 0.671875 -9.375 0.671875 -9.148438 L 0.671875 -8.972656 C 0.671875 -8.746094 0.746094 -8.664062 0.957031 -8.664062 L 1.808594 -8.617188 L 1.808594 -0.816406 L 0.957031 -0.757812 C 0.746094 -0.746094 0.671875 -0.660156 0.671875 -0.4375 L 0.671875 -0.308594 C 0.671875 -0.0820312 0.734375 0 0.957031 0 Z M 0.957031 0 "/></g></g></g><g fill="#292929" fill-opacity="1"><g transform="translate(186.031713, 235.702264)"><g><path d="M 0.957031 0 L 3.664062 0 C 3.878906 0 3.949219 -0.0820312 3.949219 -0.308594 L 3.949219 -0.4375 C 3.949219 -0.660156 3.878906 -0.746094 3.675781 -0.757812 L 2.824219 -0.816406 L 2.824219 -6.160156 C 2.824219 -6.347656 2.683594 -6.5 2.492188 -6.5 L 0.957031 -6.5 C 0.734375 -6.5 0.671875 -6.417969 0.671875 -6.195312 L 0.671875 -6.015625 C 0.671875 -5.792969 0.746094 -5.710938 0.957031 -5.710938 L 1.808594 -5.671875 L 1.808594 -0.816406 L 0.957031 -0.757812 C 0.746094 -0.746094 0.671875 -0.660156 0.671875 -0.4375 L 0.671875 -0.308594 C 0.671875 -0.0820312 0.734375 0 0.957031 0 Z M 1.394531 -8.769531 C 1.394531 -8.203125 1.609375 -7.917969 2.175781 -7.917969 C 2.742188 -7.917969 2.96875 -8.203125 2.96875 -8.769531 C 2.96875 -9.351562 2.742188 -9.621094 2.175781 -9.621094 C 1.609375 -9.621094 1.394531 -9.351562 1.394531 -8.769531 Z M 1.394531 -8.769531 "/></g></g></g><g fill="#292929" fill-opacity="1"><g transform="translate(190.650376, 235.702264)"><g><path d="M 0.945312 0 L 3.582031 0 C 3.734375 0 3.792969 -0.0820312 3.792969 -0.308594 L 3.792969 -0.4375 C 3.792969 -0.660156 3.734375 -0.746094 3.59375 -0.757812 L 2.800781 -0.816406 L 2.800781 -2.859375 C 2.800781 -4.847656 3.238281 -5.722656 4.289062 -5.722656 C 5.425781 -5.722656 5.710938 -5.210938 5.710938 -3.453125 L 5.722656 -0.816406 L 4.929688 -0.757812 C 4.785156 -0.746094 4.726562 -0.660156 4.726562 -0.4375 L 4.726562 -0.308594 C 4.726562 -0.0820312 4.785156 0 4.929688 0 L 7.433594 0 C 7.648438 0 7.707031 -0.0820312 7.707031 -0.308594 L 7.707031 -0.4375 C 7.707031 -0.660156 7.648438 -0.746094 7.421875 -0.757812 L 6.738281 -0.816406 L 6.738281 -3.476562 C 6.726562 -5.992188 6.109375 -6.691406 4.539062 -6.691406 C 3.6875 -6.691406 3.226562 -6.394531 2.800781 -5.671875 C 2.800781 -5.875 2.789062 -6.085938 2.753906 -6.277344 C 2.730469 -6.40625 2.613281 -6.5 2.480469 -6.5 L 0.945312 -6.5 C 0.734375 -6.5 0.660156 -6.417969 0.660156 -6.195312 L 0.660156 -6.015625 C 0.660156 -5.792969 0.734375 -5.710938 0.933594 -5.710938 L 1.785156 -5.671875 L 1.785156 -0.816406 L 0.933594 -0.757812 C 0.734375 -0.746094 0.660156 -0.660156 0.660156 -0.4375 L 0.660156 -0.308594 C 0.660156 -0.0820312 0.734375 0 0.945312 0 Z M 0.945312 0 "/></g></g></g><g fill="#292929" fill-opacity="1"><g transform="translate(198.871845, 235.702264)"><g><path d="M 3.628906 0.199219 C 4.621094 0.199219 5.722656 -0.152344 5.921875 -1.335938 C 5.957031 -1.609375 5.816406 -1.867188 5.554688 -1.867188 L 5.332031 -1.867188 C 5.128906 -1.867188 5.023438 -1.75 4.976562 -1.582031 C 4.859375 -0.921875 4.183594 -0.746094 3.628906 -0.746094 C 2.46875 -0.746094 1.855469 -1.476562 1.796875 -2.800781 L 5.648438 -2.824219 C 5.886719 -2.824219 6.085938 -3.003906 6.085938 -3.273438 C 6.015625 -5.601562 5.308594 -6.679688 3.476562 -6.679688 C 1.667969 -6.679688 0.757812 -5.792969 0.757812 -2.992188 C 0.757812 -0.804688 1.84375 0.199219 3.628906 0.199219 Z M 1.808594 -3.640625 C 1.867188 -5.070312 2.375 -5.695312 3.476562 -5.695312 C 4.644531 -5.695312 5.011719 -5.070312 5.046875 -3.640625 Z M 1.808594 -3.640625 "/></g></g></g></svg>