<svg xmlns="http://www.w3.org/2000/svg" xmlns:xlink="http://www.w3.org/1999/xlink" width="500" zoomAndPan="magnify" viewBox="0 0 375 374.999991" height="500" preserveAspectRatio="xMidYMid meet" version="1.0"><defs><g/></defs><g fill="#000000" fill-opacity="1"><g transform="translate(109.673507, 199.648844)"><g><path d="M 3.21875 -44.1875 L 19.34375 -44.1875 C 23.832031 -44.1875 27.46875 -43.023438 30.25 -40.703125 C 33.039062 -38.378906 34.4375 -35.003906 34.4375 -30.578125 C 34.4375 -26.148438 33.023438 -22.675781 30.203125 -20.15625 C 27.390625 -17.644531 23.769531 -16.390625 19.34375 -16.390625 L 13.28125 -16.390625 L 13.28125 0 L 3.21875 0 Z M 13.28125 -24.421875 L 16.125 -24.421875 C 18.375 -24.421875 20.21875 -24.875 21.65625 -25.78125 C 23.101562 -26.695312 23.828125 -28.191406 23.828125 -30.265625 C 23.828125 -32.367188 23.101562 -33.875 21.65625 -34.78125 C 20.21875 -35.695312 18.375 -36.15625 16.125 -36.15625 L 13.28125 -36.15625 Z M 13.28125 -24.421875 "/></g></g></g><g fill="#000000" fill-opacity="1"><g transform="translate(140.787598, 199.648844)"><g><path d="M 39.75 0 L 37.65625 -26.1875 L 37.390625 -26.1875 L 28.328125 -0.265625 L 22.328125 -0.265625 L 13.28125 -26.1875 L 13.015625 -26.1875 L 10.921875 0 L 0.859375 0 L 4.828125 -44.1875 L 15.53125 -44.1875 L 25.328125 -18.6875 L 35.140625 -44.1875 L 45.84375 -44.1875 L 49.8125 0 Z M 39.75 0 "/></g></g></g><g fill="#000000" fill-opacity="1"><g transform="translate(186.89702, 199.648844)"><g><path d="M 19.5 -45 C 21.882812 -45 24.21875 -44.648438 26.5 -43.953125 C 28.789062 -43.253906 30.492188 -42.566406 31.609375 -41.890625 L 33.203125 -40.8125 L 29.140625 -32.78125 C 28.816406 -33 28.367188 -33.273438 27.796875 -33.609375 C 27.222656 -33.953125 26.148438 -34.40625 24.578125 -34.96875 C 23.015625 -35.539062 21.550781 -35.828125 20.1875 -35.828125 C 18.507812 -35.828125 17.210938 -35.46875 16.296875 -34.75 C 15.390625 -34.039062 14.9375 -33.082031 14.9375 -31.875 C 14.9375 -31.257812 15.148438 -30.691406 15.578125 -30.171875 C 16.015625 -29.660156 16.75 -29.109375 17.78125 -28.515625 C 18.820312 -27.929688 19.734375 -27.457031 20.515625 -27.09375 C 21.296875 -26.738281 22.507812 -26.207031 24.15625 -25.5 C 27.007812 -24.28125 29.445312 -22.625 31.46875 -20.53125 C 33.488281 -18.445312 34.5 -16.082031 34.5 -13.4375 C 34.5 -10.90625 34.039062 -8.691406 33.125 -6.796875 C 32.21875 -4.910156 30.96875 -3.429688 29.375 -2.359375 C 27.789062 -1.285156 26.03125 -0.492188 24.09375 0.015625 C 22.164062 0.535156 20.082031 0.796875 17.84375 0.796875 C 15.90625 0.796875 14.007812 0.597656 12.15625 0.203125 C 10.300781 -0.179688 8.75 -0.664062 7.5 -1.25 C 6.25 -1.84375 5.125 -2.425781 4.125 -3 C 3.125 -3.570312 2.390625 -4.054688 1.921875 -4.453125 L 1.234375 -5.03125 L 6.265625 -13.5 C 6.691406 -13.144531 7.28125 -12.6875 8.03125 -12.125 C 8.78125 -11.570312 10.109375 -10.832031 12.015625 -9.90625 C 13.929688 -8.976562 15.625 -8.515625 17.09375 -8.515625 C 21.332031 -8.515625 23.453125 -9.960938 23.453125 -12.859375 C 23.453125 -13.460938 23.300781 -14.019531 23 -14.53125 C 22.695312 -15.050781 22.160156 -15.570312 21.390625 -16.09375 C 20.628906 -16.613281 19.953125 -17.023438 19.359375 -17.328125 C 18.773438 -17.628906 17.8125 -18.09375 16.46875 -18.71875 C 15.132812 -19.34375 14.144531 -19.816406 13.5 -20.140625 C 10.820312 -21.460938 8.75 -23.113281 7.28125 -25.09375 C 5.820312 -27.070312 5.09375 -29.207031 5.09375 -31.5 C 5.09375 -35.457031 6.554688 -38.695312 9.484375 -41.21875 C 12.410156 -43.738281 15.75 -45 19.5 -45 Z M 19.5 -45 "/></g></g></g><g fill="#000000" fill-opacity="1"><g transform="translate(218.332439, 199.648844)"><g><path d="M 1.234375 -22.125 C 1.234375 -28.507812 3.410156 -33.914062 7.765625 -38.34375 C 12.117188 -42.78125 17.367188 -45 23.515625 -45 C 29.691406 -45 34.941406 -42.789062 39.265625 -38.375 C 43.585938 -33.96875 45.75 -28.550781 45.75 -22.125 C 45.75 -15.65625 43.625 -10.21875 39.375 -5.8125 C 35.125 -1.40625 29.835938 0.796875 23.515625 0.796875 C 17.046875 0.796875 11.710938 -1.382812 7.515625 -5.75 C 3.328125 -10.125 1.234375 -15.582031 1.234375 -22.125 Z M 12.109375 -22.125 C 12.109375 -19.800781 12.460938 -17.679688 13.171875 -15.765625 C 13.890625 -13.859375 15.140625 -12.242188 16.921875 -10.921875 C 18.710938 -9.597656 20.910156 -8.9375 23.515625 -8.9375 C 27.265625 -8.9375 30.09375 -10.222656 32 -12.796875 C 33.914062 -15.367188 34.875 -18.476562 34.875 -22.125 C 34.875 -25.726562 33.898438 -28.820312 31.953125 -31.40625 C 30.003906 -34 27.191406 -35.296875 23.515625 -35.296875 C 19.867188 -35.296875 17.054688 -34 15.078125 -31.40625 C 13.097656 -28.820312 12.109375 -25.726562 12.109375 -22.125 Z M 12.109375 -22.125 "/></g></g></g><path stroke-linecap="butt" transform="matrix(0.75, 0, 0, 0.75, 93.522361, 228.073139)" fill="none" stroke-linejoin="miter" d="M 0.00143566 5.001439 L 84.433733 5.001439 " stroke="#292929" stroke-width="10" stroke-opacity="1" stroke-miterlimit="4"/><path stroke-linecap="butt" transform="matrix(0, 0.75, -0.75, 0, 101.018508, 171.479446)" fill="none" stroke-linejoin="miter" d="M 0.00136321 4.998636 L 82.46491 4.998636 " stroke="#292929" stroke-width="10" stroke-opacity="1" stroke-miterlimit="4"/><path stroke-linecap="butt" transform="matrix(-0.75, 0, 0, -0.75, 283.487477, 146.919146)" fill="none" stroke-linejoin="miter" d="M -0.00107222 5.00157 L 84.431225 5.00157 " stroke="#292929" stroke-width="10" stroke-opacity="1" stroke-miterlimit="4"/><path stroke-linecap="butt" transform="matrix(0, -0.75, 0.75, 0, 275.991344, 203.512837)" fill="none" stroke-linejoin="miter" d="M 0.00149105 5.001125 L 82.465038 5.001125 " stroke="#292929" stroke-width="10" stroke-opacity="1" stroke-miterlimit="4"/><g fill="#292929" fill-opacity="1"><g transform="translate(105.664063, 219.248068)"><g><path d="M 0.796875 0 L 2.949219 0 C 3.125 0 3.183594 -0.0703125 3.183594 -0.253906 L 3.183594 -0.460938 C 3.183594 -0.648438 3.125 -0.71875 2.949219 -0.726562 L 2.101562 -0.785156 L 2.101562 -2.367188 L 2.808594 -2.367188 C 4.863281 -2.378906 5.746094 -3.066406 5.746094 -4.570312 C 5.746094 -6.160156 5.058594 -6.867188 3.410156 -6.878906 L 0.796875 -6.878906 C 0.609375 -6.878906 0.558594 -6.808594 0.558594 -6.632812 L 0.558594 -6.40625 C 0.558594 -6.21875 0.617188 -6.148438 0.796875 -6.148438 L 1.246094 -6.089844 L 1.246094 -0.785156 L 0.796875 -0.726562 C 0.617188 -0.71875 0.558594 -0.648438 0.558594 -0.460938 L 0.558594 -0.253906 C 0.558594 -0.0703125 0.609375 0 0.796875 0 Z M 2.101562 -3.074219 L 2.101562 -6.148438 L 3.027344 -6.148438 C 4.667969 -6.148438 4.921875 -5.609375 4.921875 -4.539062 C 4.921875 -3.527344 4.3125 -3.074219 2.839844 -3.074219 Z M 2.101562 -3.074219 "/></g></g></g><g fill="#292929" fill-opacity="1"><g transform="translate(111.873252, 219.248068)"><g><path d="M 0.796875 0 L 3.046875 0 C 3.222656 0 3.28125 -0.0703125 3.28125 -0.253906 L 3.28125 -0.363281 C 3.28125 -0.550781 3.222656 -0.617188 3.054688 -0.628906 L 2.347656 -0.679688 L 2.347656 -7.574219 C 2.347656 -7.730469 2.230469 -7.859375 2.074219 -7.859375 L 0.796875 -7.859375 C 0.609375 -7.859375 0.558594 -7.789062 0.558594 -7.605469 L 0.558594 -7.457031 C 0.558594 -7.269531 0.617188 -7.203125 0.796875 -7.203125 L 1.503906 -7.164062 L 1.503906 -0.679688 L 0.796875 -0.628906 C 0.617188 -0.617188 0.558594 -0.550781 0.558594 -0.363281 L 0.558594 -0.253906 C 0.558594 -0.0703125 0.609375 0 0.796875 0 Z M 0.796875 0 "/></g></g></g><g fill="#292929" fill-opacity="1"><g transform="translate(115.714698, 219.248068)"><g><path d="M 2.269531 0.117188 C 3.242188 0.117188 3.773438 -0.285156 4.105469 -0.71875 C 4.164062 -0.246094 4.539062 0 5.136719 -0.03125 C 5.265625 -0.0390625 5.34375 -0.167969 5.335938 -0.3125 L 5.316406 -0.550781 C 5.304688 -0.660156 5.238281 -0.757812 5.128906 -0.777344 C 4.804688 -0.824219 4.765625 -1.257812 4.765625 -1.847656 L 4.753906 -4 C 4.753906 -5.050781 4.019531 -5.5625 2.542969 -5.53125 C 1.511719 -5.5 0.738281 -5.097656 0.738281 -4.246094 C 0.738281 -3.722656 0.992188 -3.4375 1.433594 -3.429688 C 1.867188 -3.429688 2.0625 -3.597656 2.0625 -4 C 2.0625 -4.371094 1.894531 -4.519531 1.542969 -4.488281 C 1.601562 -4.765625 2.121094 -4.882812 2.542969 -4.894531 C 3.515625 -4.914062 3.910156 -4.46875 3.910156 -4.085938 C 3.910156 -3.703125 3.675781 -3.332031 2.4375 -3.113281 C 1.207031 -2.878906 0.558594 -2.417969 0.558594 -1.464844 C 0.558594 -0.472656 1.21875 0.117188 2.269531 0.117188 Z M 1.40625 -1.503906 C 1.386719 -2.042969 1.808594 -2.359375 2.503906 -2.476562 C 3.125 -2.5625 3.820312 -2.761719 3.929688 -3.007812 L 3.921875 -1.886719 C 3.910156 -1.140625 3.339844 -0.609375 2.476562 -0.570312 C 1.816406 -0.53125 1.414062 -0.902344 1.40625 -1.503906 Z M 1.40625 -1.503906 "/></g></g></g><g fill="#292929" fill-opacity="1"><g transform="translate(121.255812, 219.248068)"><g><path d="M 2.839844 0.148438 C 3.273438 0.148438 3.527344 0.109375 3.734375 -0.0117188 C 3.792969 -0.0585938 3.792969 -0.175781 3.742188 -0.285156 L 3.597656 -0.570312 C 3.507812 -0.699219 3.429688 -0.71875 3.339844 -0.699219 C 2.898438 -0.589844 2.035156 -0.609375 2.035156 -1.542969 L 2.023438 -4.675781 L 3.449219 -4.675781 C 3.617188 -4.675781 3.675781 -4.753906 3.675781 -4.933594 L 3.675781 -5.148438 C 3.675781 -5.324219 3.617188 -5.402344 3.449219 -5.402344 L 2.023438 -5.402344 L 2.023438 -6.394531 C 2.023438 -6.535156 1.925781 -6.640625 1.796875 -6.640625 L 1.425781 -6.640625 C 1.285156 -6.640625 1.1875 -6.535156 1.1875 -6.394531 L 1.1875 -5.402344 L 0.894531 -5.402344 C 0.71875 -5.402344 0.660156 -5.324219 0.660156 -5.148438 L 0.660156 -4.933594 C 0.660156 -4.753906 0.726562 -4.675781 0.894531 -4.675781 L 1.1875 -4.675781 L 1.1875 -1.453125 C 1.1875 -0.265625 1.90625 0.148438 2.839844 0.148438 Z M 2.839844 0.148438 "/></g></g></g><g fill="#292929" fill-opacity="1"><g transform="translate(125.588493, 219.248068)"><g><path d="M 0.796875 0 L 3.046875 0 C 3.222656 0 3.28125 -0.0703125 3.28125 -0.253906 L 3.28125 -0.363281 C 3.28125 -0.550781 3.222656 -0.617188 3.054688 -0.628906 L 2.347656 -0.6875 L 2.347656 -4.746094 L 3.585938 -4.746094 C 3.761719 -4.746094 3.820312 -4.824219 3.820312 -5 L 3.820312 -5.148438 C 3.820312 -5.324219 3.753906 -5.402344 3.585938 -5.402344 L 2.28125 -5.402344 L 2.230469 -6.472656 C 2.191406 -7.308594 2.664062 -7.535156 3.332031 -7.535156 C 3.773438 -7.535156 4.007812 -7.339844 4.046875 -7.164062 C 3.703125 -7.183594 3.546875 -6.984375 3.546875 -6.632812 C 3.546875 -6.238281 3.792969 -6.070312 4.222656 -6.070312 C 4.539062 -6.089844 4.773438 -6.355469 4.773438 -6.796875 C 4.773438 -7.652344 4.136719 -8.183594 3.332031 -8.183594 C 2.398438 -8.183594 1.503906 -7.769531 1.503906 -6.574219 L 1.503906 -5.402344 L 1.042969 -5.402344 C 0.875 -5.402344 0.796875 -5.324219 0.796875 -5.148438 L 0.796875 -5 C 0.796875 -4.824219 0.863281 -4.746094 1.03125 -4.746094 L 1.503906 -4.746094 L 1.503906 -0.6875 L 0.796875 -0.628906 C 0.617188 -0.617188 0.558594 -0.550781 0.558594 -0.363281 L 0.558594 -0.253906 C 0.558594 -0.0703125 0.609375 0 0.796875 0 Z M 0.796875 0 "/></g></g></g><g fill="#292929" fill-opacity="1"><g transform="translate(129.862221, 219.248068)"><g><path d="M 3.015625 0.175781 C 4.65625 0.175781 5.375 -0.6875 5.375 -2.664062 C 5.375 -4.675781 4.65625 -5.5625 3.015625 -5.5625 C 1.355469 -5.5625 0.628906 -4.675781 0.628906 -2.664062 C 0.628906 -0.6875 1.355469 0.175781 3.015625 0.175781 Z M 1.484375 -2.664062 C 1.484375 -4.117188 1.957031 -4.753906 3.015625 -4.753906 C 4.058594 -4.753906 4.527344 -4.117188 4.527344 -2.664062 C 4.527344 -1.238281 4.058594 -0.617188 3.015625 -0.617188 C 1.957031 -0.617188 1.484375 -1.238281 1.484375 -2.664062 Z M 1.484375 -2.664062 "/></g></g></g><g fill="#292929" fill-opacity="1"><g transform="translate(135.874921, 219.248068)"><g><path d="M 0.636719 0 L 3.007812 0 C 3.191406 0 3.242188 -0.0703125 3.242188 -0.253906 L 3.242188 -0.363281 C 3.242188 -0.550781 3.183594 -0.617188 3.007812 -0.628906 L 2.191406 -0.679688 L 2.199219 -2.800781 C 2.199219 -4.125 2.847656 -4.714844 3.605469 -4.714844 C 3.859375 -4.714844 4.058594 -4.628906 4.058594 -4.519531 C 3.742188 -4.539062 3.515625 -4.351562 3.515625 -4 C 3.515625 -3.625 3.695312 -3.457031 4.136719 -3.457031 C 4.527344 -3.476562 4.980469 -3.761719 4.980469 -4.3125 C 4.980469 -5.304688 4.222656 -5.5625 3.683594 -5.5625 C 3.203125 -5.5625 2.484375 -5.226562 2.191406 -4.714844 C 2.191406 -4.882812 2.171875 -5.058594 2.152344 -5.21875 C 2.121094 -5.324219 2.035156 -5.402344 1.914062 -5.402344 L 0.636719 -5.402344 C 0.460938 -5.402344 0.414062 -5.335938 0.414062 -5.148438 L 0.414062 -5 C 0.414062 -4.8125 0.460938 -4.746094 0.636719 -4.746094 L 1.347656 -4.714844 L 1.347656 -0.679688 L 0.636719 -0.628906 C 0.460938 -0.617188 0.414062 -0.550781 0.414062 -0.363281 L 0.414062 -0.253906 C 0.414062 -0.0703125 0.460938 0 0.636719 0 Z M 0.636719 0 "/></g></g></g><g fill="#292929" fill-opacity="1"><g transform="translate(141.268662, 219.248068)"><g><path d="M 0.785156 0 L 2.976562 0 C 3.105469 0 3.152344 -0.0703125 3.152344 -0.253906 L 3.152344 -0.363281 C 3.152344 -0.550781 3.105469 -0.617188 2.988281 -0.628906 L 2.328125 -0.679688 L 2.328125 -2.378906 C 2.328125 -4.027344 2.691406 -4.753906 3.507812 -4.753906 C 4.253906 -4.753906 4.488281 -4.332031 4.5 -2.867188 L 4.5 -0.679688 L 3.839844 -0.628906 C 3.722656 -0.617188 3.675781 -0.550781 3.675781 -0.363281 L 3.675781 -0.253906 C 3.675781 -0.0703125 3.722656 0 3.851562 0 L 5.867188 0 C 5.984375 0 6.042969 -0.0703125 6.042969 -0.253906 L 6.042969 -0.363281 C 6.042969 -0.550781 5.992188 -0.617188 5.867188 -0.628906 L 5.34375 -0.679688 L 5.34375 -2.378906 C 5.34375 -4.027344 5.699219 -4.753906 6.515625 -4.753906 C 7.269531 -4.753906 7.496094 -4.34375 7.507812 -2.867188 L 7.515625 -0.6875 L 6.859375 -0.628906 C 6.738281 -0.617188 6.691406 -0.550781 6.691406 -0.363281 L 6.691406 -0.253906 C 6.691406 -0.0703125 6.738281 0 6.859375 0 L 8.929688 0 C 9.109375 0 9.167969 -0.0703125 9.167969 -0.253906 L 9.167969 -0.363281 C 9.167969 -0.550781 9.117188 -0.617188 8.929688 -0.628906 L 8.359375 -0.6875 L 8.359375 -2.886719 C 8.351562 -4.980469 7.839844 -5.5625 6.71875 -5.5625 C 6.082031 -5.5625 5.570312 -5.394531 5.167969 -4.460938 C 4.941406 -5.304688 4.46875 -5.5625 3.703125 -5.5625 C 3.066406 -5.5625 2.683594 -5.316406 2.328125 -4.714844 C 2.328125 -4.882812 2.320312 -5.058594 2.289062 -5.21875 C 2.269531 -5.324219 2.171875 -5.402344 2.0625 -5.402344 L 0.785156 -5.402344 C 0.609375 -5.402344 0.550781 -5.335938 0.550781 -5.148438 L 0.550781 -5 C 0.550781 -4.8125 0.609375 -4.746094 0.777344 -4.746094 L 1.484375 -4.714844 L 1.484375 -0.679688 L 0.777344 -0.628906 C 0.609375 -0.617188 0.550781 -0.550781 0.550781 -0.363281 L 0.550781 -0.253906 C 0.550781 -0.0703125 0.609375 0 0.785156 0 Z M 0.785156 0 "/></g></g></g><g fill="#292929" fill-opacity="1"><g transform="translate(150.867368, 219.248068)"><g/></g></g><g fill="#292929" fill-opacity="1"><g transform="translate(154.983903, 219.248068)"><g><path d="M 0.796875 0 L 3.066406 0 C 3.183594 0 3.230469 -0.0703125 3.230469 -0.253906 L 3.230469 -0.363281 C 3.230469 -0.550781 3.183594 -0.617188 3.066406 -0.628906 L 2.359375 -0.679688 L 2.359375 -5.699219 L 4.332031 -0.117188 C 4.371094 0 4.402344 0.0195312 4.488281 0.0195312 L 4.765625 0.0195312 C 4.851562 0.0195312 4.882812 0 4.933594 -0.128906 L 6.898438 -5.699219 L 6.898438 -0.679688 L 6.191406 -0.628906 C 6.070312 -0.617188 6.011719 -0.550781 6.011719 -0.363281 L 6.011719 -0.253906 C 6.011719 -0.0703125 6.070312 0 6.191406 0 L 8.460938 0 C 8.636719 0 8.695312 -0.0703125 8.695312 -0.253906 L 8.695312 -0.363281 C 8.695312 -0.550781 8.636719 -0.617188 8.460938 -0.628906 L 7.75 -0.679688 L 7.75 -6.191406 L 8.460938 -6.21875 C 8.636719 -6.21875 8.695312 -6.289062 8.695312 -6.472656 L 8.695312 -6.621094 C 8.695312 -6.808594 8.636719 -6.878906 8.460938 -6.878906 L 6.71875 -6.878906 C 6.632812 -6.878906 6.542969 -6.828125 6.515625 -6.738281 L 4.628906 -1.679688 L 2.742188 -6.738281 C 2.703125 -6.828125 2.625 -6.878906 2.535156 -6.878906 L 0.796875 -6.878906 C 0.609375 -6.878906 0.558594 -6.808594 0.558594 -6.621094 L 0.558594 -6.472656 C 0.558594 -6.289062 0.617188 -6.21875 0.796875 -6.21875 L 1.503906 -6.191406 L 1.503906 -0.679688 L 0.796875 -0.628906 C 0.617188 -0.617188 0.558594 -0.550781 0.558594 -0.363281 L 0.558594 -0.253906 C 0.558594 -0.0703125 0.609375 0 0.796875 0 Z M 0.796875 0 "/></g></g></g><g fill="#292929" fill-opacity="1"><g transform="translate(164.238748, 219.248068)"><g><path d="M 2.269531 0.117188 C 3.242188 0.117188 3.773438 -0.285156 4.105469 -0.71875 C 4.164062 -0.246094 4.539062 0 5.136719 -0.03125 C 5.265625 -0.0390625 5.34375 -0.167969 5.335938 -0.3125 L 5.316406 -0.550781 C 5.304688 -0.660156 5.238281 -0.757812 5.128906 -0.777344 C 4.804688 -0.824219 4.765625 -1.257812 4.765625 -1.847656 L 4.753906 -4 C 4.753906 -5.050781 4.019531 -5.5625 2.542969 -5.53125 C 1.511719 -5.5 0.738281 -5.097656 0.738281 -4.246094 C 0.738281 -3.722656 0.992188 -3.4375 1.433594 -3.429688 C 1.867188 -3.429688 2.0625 -3.597656 2.0625 -4 C 2.0625 -4.371094 1.894531 -4.519531 1.542969 -4.488281 C 1.601562 -4.765625 2.121094 -4.882812 2.542969 -4.894531 C 3.515625 -4.914062 3.910156 -4.46875 3.910156 -4.085938 C 3.910156 -3.703125 3.675781 -3.332031 2.4375 -3.113281 C 1.207031 -2.878906 0.558594 -2.417969 0.558594 -1.464844 C 0.558594 -0.472656 1.21875 0.117188 2.269531 0.117188 Z M 1.40625 -1.503906 C 1.386719 -2.042969 1.808594 -2.359375 2.503906 -2.476562 C 3.125 -2.5625 3.820312 -2.761719 3.929688 -3.007812 L 3.921875 -1.886719 C 3.910156 -1.140625 3.339844 -0.609375 2.476562 -0.570312 C 1.816406 -0.53125 1.414062 -0.902344 1.40625 -1.503906 Z M 1.40625 -1.503906 "/></g></g></g><g fill="#292929" fill-opacity="1"><g transform="translate(169.779862, 219.248068)"><g><path d="M 0.785156 0 L 2.976562 0 C 3.105469 0 3.152344 -0.0703125 3.152344 -0.253906 L 3.152344 -0.363281 C 3.152344 -0.550781 3.105469 -0.617188 2.988281 -0.628906 L 2.328125 -0.679688 L 2.328125 -2.378906 C 2.328125 -4.027344 2.691406 -4.753906 3.566406 -4.753906 C 4.507812 -4.753906 4.746094 -4.332031 4.746094 -2.867188 L 4.753906 -0.679688 L 4.097656 -0.628906 C 3.980469 -0.617188 3.929688 -0.550781 3.929688 -0.363281 L 3.929688 -0.253906 C 3.929688 -0.0703125 3.980469 0 4.097656 0 L 6.179688 0 C 6.355469 0 6.40625 -0.0703125 6.40625 -0.253906 L 6.40625 -0.363281 C 6.40625 -0.550781 6.355469 -0.617188 6.167969 -0.628906 L 5.601562 -0.679688 L 5.601562 -2.886719 C 5.589844 -4.980469 5.078125 -5.5625 3.773438 -5.5625 C 3.066406 -5.5625 2.683594 -5.316406 2.328125 -4.714844 C 2.328125 -4.882812 2.320312 -5.058594 2.289062 -5.21875 C 2.269531 -5.324219 2.171875 -5.402344 2.0625 -5.402344 L 0.785156 -5.402344 C 0.609375 -5.402344 0.550781 -5.335938 0.550781 -5.148438 L 0.550781 -5 C 0.550781 -4.8125 0.609375 -4.746094 0.777344 -4.746094 L 1.484375 -4.714844 L 1.484375 -0.679688 L 0.777344 -0.628906 C 0.609375 -0.617188 0.550781 -0.550781 0.550781 -0.363281 L 0.550781 -0.253906 C 0.550781 -0.0703125 0.609375 0 0.785156 0 Z M 0.785156 0 "/></g></g></g><g fill="#292929" fill-opacity="1"><g transform="translate(176.61783, 219.248068)"><g><path d="M 2.269531 0.117188 C 3.242188 0.117188 3.773438 -0.285156 4.105469 -0.71875 C 4.164062 -0.246094 4.539062 0 5.136719 -0.03125 C 5.265625 -0.0390625 5.34375 -0.167969 5.335938 -0.3125 L 5.316406 -0.550781 C 5.304688 -0.660156 5.238281 -0.757812 5.128906 -0.777344 C 4.804688 -0.824219 4.765625 -1.257812 4.765625 -1.847656 L 4.753906 -4 C 4.753906 -5.050781 4.019531 -5.5625 2.542969 -5.53125 C 1.511719 -5.5 0.738281 -5.097656 0.738281 -4.246094 C 0.738281 -3.722656 0.992188 -3.4375 1.433594 -3.429688 C 1.867188 -3.429688 2.0625 -3.597656 2.0625 -4 C 2.0625 -4.371094 1.894531 -4.519531 1.542969 -4.488281 C 1.601562 -4.765625 2.121094 -4.882812 2.542969 -4.894531 C 3.515625 -4.914062 3.910156 -4.46875 3.910156 -4.085938 C 3.910156 -3.703125 3.675781 -3.332031 2.4375 -3.113281 C 1.207031 -2.878906 0.558594 -2.417969 0.558594 -1.464844 C 0.558594 -0.472656 1.21875 0.117188 2.269531 0.117188 Z M 1.40625 -1.503906 C 1.386719 -2.042969 1.808594 -2.359375 2.503906 -2.476562 C 3.125 -2.5625 3.820312 -2.761719 3.929688 -3.007812 L 3.921875 -1.886719 C 3.910156 -1.140625 3.339844 -0.609375 2.476562 -0.570312 C 1.816406 -0.53125 1.414062 -0.902344 1.40625 -1.503906 Z M 1.40625 -1.503906 "/></g></g></g><g fill="#292929" fill-opacity="1"><g transform="translate(182.158944, 219.248068)"><g><path d="M 0.453125 2.425781 C 1.386719 2.425781 2.289062 2.015625 2.289062 0.824219 L 2.300781 -5.117188 C 2.300781 -5.277344 2.179688 -5.402344 2.023438 -5.402344 L 0.746094 -5.402344 C 0.570312 -5.402344 0.511719 -5.335938 0.511719 -5.148438 L 0.511719 -5 C 0.511719 -4.8125 0.570312 -4.746094 0.746094 -4.746094 L 1.453125 -4.714844 L 1.453125 0.472656 C 1.652344 1.53125 0.953125 1.777344 0.453125 1.777344 C 0.0195312 1.777344 -0.226562 1.582031 -0.253906 1.40625 C 0.078125 1.425781 0.246094 1.226562 0.246094 0.875 C 0.246094 0.480469 0.078125 0.3125 -0.355469 0.3125 C -0.746094 0.335938 -1.050781 0.597656 -1.050781 1.042969 C -1.050781 1.964844 -0.34375 2.425781 0.453125 2.425781 Z M 1.109375 -7.289062 C 1.109375 -6.816406 1.285156 -6.582031 1.757812 -6.582031 C 2.230469 -6.582031 2.417969 -6.816406 2.417969 -7.289062 C 2.417969 -7.769531 2.230469 -7.996094 1.757812 -7.996094 C 1.285156 -7.996094 1.109375 -7.769531 1.109375 -7.289062 Z M 1.109375 -7.289062 "/></g></g></g><g fill="#292929" fill-opacity="1"><g transform="translate(185.460031, 219.248068)"><g><path d="M 3.015625 0.167969 C 3.839844 0.167969 4.753906 -0.128906 4.921875 -1.109375 C 4.953125 -1.335938 4.832031 -1.550781 4.617188 -1.550781 L 4.429688 -1.550781 C 4.265625 -1.550781 4.175781 -1.453125 4.136719 -1.316406 C 4.039062 -0.765625 3.476562 -0.617188 3.015625 -0.617188 C 2.054688 -0.617188 1.542969 -1.226562 1.492188 -2.328125 L 4.695312 -2.347656 C 4.894531 -2.347656 5.058594 -2.496094 5.058594 -2.722656 C 5 -4.65625 4.410156 -5.550781 2.886719 -5.550781 C 1.386719 -5.550781 0.628906 -4.8125 0.628906 -2.484375 C 0.628906 -0.667969 1.53125 0.167969 3.015625 0.167969 Z M 1.503906 -3.027344 C 1.550781 -4.214844 1.976562 -4.734375 2.886719 -4.734375 C 3.859375 -4.734375 4.164062 -4.214844 4.195312 -3.027344 Z M 1.503906 -3.027344 "/></g></g></g><g fill="#292929" fill-opacity="1"><g transform="translate(191.148518, 219.248068)"><g><path d="M 0.785156 0 L 2.976562 0 C 3.105469 0 3.152344 -0.0703125 3.152344 -0.253906 L 3.152344 -0.363281 C 3.152344 -0.550781 3.105469 -0.617188 2.988281 -0.628906 L 2.328125 -0.679688 L 2.328125 -2.378906 C 2.328125 -4.027344 2.691406 -4.753906 3.507812 -4.753906 C 4.253906 -4.753906 4.488281 -4.332031 4.5 -2.867188 L 4.5 -0.679688 L 3.839844 -0.628906 C 3.722656 -0.617188 3.675781 -0.550781 3.675781 -0.363281 L 3.675781 -0.253906 C 3.675781 -0.0703125 3.722656 0 3.851562 0 L 5.867188 0 C 5.984375 0 6.042969 -0.0703125 6.042969 -0.253906 L 6.042969 -0.363281 C 6.042969 -0.550781 5.992188 -0.617188 5.867188 -0.628906 L 5.34375 -0.679688 L 5.34375 -2.378906 C 5.34375 -4.027344 5.699219 -4.753906 6.515625 -4.753906 C 7.269531 -4.753906 7.496094 -4.34375 7.507812 -2.867188 L 7.515625 -0.6875 L 6.859375 -0.628906 C 6.738281 -0.617188 6.691406 -0.550781 6.691406 -0.363281 L 6.691406 -0.253906 C 6.691406 -0.0703125 6.738281 0 6.859375 0 L 8.929688 0 C 9.109375 0 9.167969 -0.0703125 9.167969 -0.253906 L 9.167969 -0.363281 C 9.167969 -0.550781 9.117188 -0.617188 8.929688 -0.628906 L 8.359375 -0.6875 L 8.359375 -2.886719 C 8.351562 -4.980469 7.839844 -5.5625 6.71875 -5.5625 C 6.082031 -5.5625 5.570312 -5.394531 5.167969 -4.460938 C 4.941406 -5.304688 4.46875 -5.5625 3.703125 -5.5625 C 3.066406 -5.5625 2.683594 -5.316406 2.328125 -4.714844 C 2.328125 -4.882812 2.320312 -5.058594 2.289062 -5.21875 C 2.269531 -5.324219 2.171875 -5.402344 2.0625 -5.402344 L 0.785156 -5.402344 C 0.609375 -5.402344 0.550781 -5.335938 0.550781 -5.148438 L 0.550781 -5 C 0.550781 -4.8125 0.609375 -4.746094 0.777344 -4.746094 L 1.484375 -4.714844 L 1.484375 -0.679688 L 0.777344 -0.628906 C 0.609375 -0.617188 0.550781 -0.550781 0.550781 -0.363281 L 0.550781 -0.253906 C 0.550781 -0.0703125 0.609375 0 0.785156 0 Z M 0.785156 0 "/></g></g></g><g fill="#292929" fill-opacity="1"><g transform="translate(200.747224, 219.248068)"><g><path d="M 3.015625 0.167969 C 3.839844 0.167969 4.753906 -0.128906 4.921875 -1.109375 C 4.953125 -1.335938 4.832031 -1.550781 4.617188 -1.550781 L 4.429688 -1.550781 C 4.265625 -1.550781 4.175781 -1.453125 4.136719 -1.316406 C 4.039062 -0.765625 3.476562 -0.617188 3.015625 -0.617188 C 2.054688 -0.617188 1.542969 -1.226562 1.492188 -2.328125 L 4.695312 -2.347656 C 4.894531 -2.347656 5.058594 -2.496094 5.058594 -2.722656 C 5 -4.65625 4.410156 -5.550781 2.886719 -5.550781 C 1.386719 -5.550781 0.628906 -4.8125 0.628906 -2.484375 C 0.628906 -0.667969 1.53125 0.167969 3.015625 0.167969 Z M 1.503906 -3.027344 C 1.550781 -4.214844 1.976562 -4.734375 2.886719 -4.734375 C 3.859375 -4.734375 4.164062 -4.214844 4.195312 -3.027344 Z M 1.503906 -3.027344 "/></g></g></g><g fill="#292929" fill-opacity="1"><g transform="translate(206.435711, 219.248068)"><g><path d="M 0.785156 0 L 2.976562 0 C 3.105469 0 3.152344 -0.0703125 3.152344 -0.253906 L 3.152344 -0.363281 C 3.152344 -0.550781 3.105469 -0.617188 2.988281 -0.628906 L 2.328125 -0.679688 L 2.328125 -2.378906 C 2.328125 -4.027344 2.691406 -4.753906 3.566406 -4.753906 C 4.507812 -4.753906 4.746094 -4.332031 4.746094 -2.867188 L 4.753906 -0.679688 L 4.097656 -0.628906 C 3.980469 -0.617188 3.929688 -0.550781 3.929688 -0.363281 L 3.929688 -0.253906 C 3.929688 -0.0703125 3.980469 0 4.097656 0 L 6.179688 0 C 6.355469 0 6.40625 -0.0703125 6.40625 -0.253906 L 6.40625 -0.363281 C 6.40625 -0.550781 6.355469 -0.617188 6.167969 -0.628906 L 5.601562 -0.679688 L 5.601562 -2.886719 C 5.589844 -4.980469 5.078125 -5.5625 3.773438 -5.5625 C 3.066406 -5.5625 2.683594 -5.316406 2.328125 -4.714844 C 2.328125 -4.882812 2.320312 -5.058594 2.289062 -5.21875 C 2.269531 -5.324219 2.171875 -5.402344 2.0625 -5.402344 L 0.785156 -5.402344 C 0.609375 -5.402344 0.550781 -5.335938 0.550781 -5.148438 L 0.550781 -5 C 0.550781 -4.8125 0.609375 -4.746094 0.777344 -4.746094 L 1.484375 -4.714844 L 1.484375 -0.679688 L 0.777344 -0.628906 C 0.609375 -0.617188 0.550781 -0.550781 0.550781 -0.363281 L 0.550781 -0.253906 C 0.550781 -0.0703125 0.609375 0 0.785156 0 Z M 0.785156 0 "/></g></g></g><g fill="#292929" fill-opacity="1"><g transform="translate(213.273679, 219.248068)"><g/></g></g><g fill="#292929" fill-opacity="1"><g transform="translate(217.390214, 219.248068)"><g><path d="M 2.976562 0.148438 C 4.648438 0.148438 5.53125 -0.414062 5.53125 -1.808594 C 5.53125 -2.839844 4.863281 -3.351562 3.488281 -3.878906 C 1.996094 -4.46875 1.601562 -4.792969 1.601562 -5.324219 C 1.601562 -5.964844 2.042969 -6.210938 2.96875 -6.210938 C 3.851562 -6.21875 4.34375 -5.824219 4.648438 -4.648438 C 4.714844 -4.410156 4.84375 -4.351562 5 -4.351562 L 5.167969 -4.351562 C 5.394531 -4.351562 5.453125 -4.449219 5.453125 -4.675781 L 5.472656 -6.542969 C 5.472656 -6.769531 5.394531 -6.867188 5.1875 -6.867188 L 5.097656 -6.867188 C 4.933594 -6.867188 4.851562 -6.789062 4.84375 -6.632812 L 4.824219 -5.816406 C 4.648438 -6.515625 3.980469 -6.996094 2.929688 -6.996094 C 1.472656 -6.996094 0.738281 -6.523438 0.746094 -5.335938 C 0.757812 -4.480469 1.238281 -3.8125 2.484375 -3.359375 C 3.929688 -2.808594 4.667969 -2.378906 4.667969 -1.828125 C 4.667969 -0.984375 4.039062 -0.636719 2.949219 -0.628906 C 2.023438 -0.628906 1.464844 -0.960938 1.53125 -2.328125 C 1.542969 -2.503906 1.386719 -2.574219 1.238281 -2.574219 L 1.011719 -2.574219 C 0.816406 -2.574219 0.726562 -2.4375 0.71875 -2.21875 C 0.648438 -0.0585938 1.984375 0.148438 2.976562 0.148438 Z M 2.976562 0.148438 "/></g></g></g><g fill="#292929" fill-opacity="1"><g transform="translate(223.619061, 219.248068)"><g><path d="M 3.015625 0.167969 C 3.839844 0.167969 4.753906 -0.128906 4.921875 -1.109375 C 4.953125 -1.335938 4.832031 -1.550781 4.617188 -1.550781 L 4.429688 -1.550781 C 4.265625 -1.550781 4.175781 -1.453125 4.136719 -1.316406 C 4.039062 -0.765625 3.476562 -0.617188 3.015625 -0.617188 C 2.054688 -0.617188 1.542969 -1.226562 1.492188 -2.328125 L 4.695312 -2.347656 C 4.894531 -2.347656 5.058594 -2.496094 5.058594 -2.722656 C 5 -4.65625 4.410156 -5.550781 2.886719 -5.550781 C 1.386719 -5.550781 0.628906 -4.8125 0.628906 -2.484375 C 0.628906 -0.667969 1.53125 0.167969 3.015625 0.167969 Z M 1.503906 -3.027344 C 1.550781 -4.214844 1.976562 -4.734375 2.886719 -4.734375 C 3.859375 -4.734375 4.164062 -4.214844 4.195312 -3.027344 Z M 1.503906 -3.027344 "/></g></g></g><g fill="#292929" fill-opacity="1"><g transform="translate(229.307548, 219.248068)"><g><path d="M 5.5625 0.148438 C 5.777344 0.148438 5.914062 0.0507812 5.914062 -0.136719 L 5.914062 -0.292969 C 5.914062 -0.492188 5.824219 -0.617188 5.609375 -0.648438 C 4.734375 -0.699219 4.097656 -2.113281 3.527344 -3.261719 C 4.371094 -4.402344 4.636719 -4.734375 5.441406 -4.746094 C 5.660156 -4.753906 5.738281 -4.902344 5.738281 -5.117188 L 5.738281 -5.246094 C 5.738281 -5.433594 5.601562 -5.542969 5.382812 -5.53125 C 4.15625 -5.511719 3.8125 -4.894531 2.859375 -3.566406 C 2.625 -3.230469 2.320312 -2.820312 2.003906 -2.378906 L 2.003906 -7.574219 C 2.003906 -7.730469 1.886719 -7.859375 1.730469 -7.859375 L 0.453125 -7.859375 C 0.265625 -7.859375 0.214844 -7.789062 0.214844 -7.605469 L 0.214844 -7.457031 C 0.214844 -7.269531 0.273438 -7.203125 0.453125 -7.203125 L 1.160156 -7.164062 L 1.160156 -0.679688 L 0.453125 -0.628906 C 0.273438 -0.617188 0.214844 -0.550781 0.214844 -0.363281 L 0.214844 -0.253906 C 0.214844 -0.0703125 0.265625 0 0.453125 0 L 2.671875 0 C 2.800781 0 2.847656 -0.0703125 2.847656 -0.253906 L 2.847656 -0.363281 C 2.847656 -0.550781 2.800781 -0.617188 2.683594 -0.628906 L 2.003906 -0.679688 L 2.003906 -1.199219 L 2.976562 -2.554688 C 3.496094 -1.652344 4.105469 0.117188 5.5625 0.148438 Z M 5.5625 0.148438 "/></g></g></g><g fill="#292929" fill-opacity="1"><g transform="translate(235.428317, 219.248068)"><g><path d="M 3.015625 0.175781 C 4.65625 0.175781 5.375 -0.6875 5.375 -2.664062 C 5.375 -4.675781 4.65625 -5.5625 3.015625 -5.5625 C 1.355469 -5.5625 0.628906 -4.675781 0.628906 -2.664062 C 0.628906 -0.6875 1.355469 0.175781 3.015625 0.175781 Z M 1.484375 -2.664062 C 1.484375 -4.117188 1.957031 -4.753906 3.015625 -4.753906 C 4.058594 -4.753906 4.527344 -4.117188 4.527344 -2.664062 C 4.527344 -1.238281 4.058594 -0.617188 3.015625 -0.617188 C 1.957031 -0.617188 1.484375 -1.238281 1.484375 -2.664062 Z M 1.484375 -2.664062 "/></g></g></g><g fill="#292929" fill-opacity="1"><g transform="translate(241.441017, 219.248068)"><g><path d="M 0.796875 0 L 3.046875 0 C 3.222656 0 3.28125 -0.0703125 3.28125 -0.253906 L 3.28125 -0.363281 C 3.28125 -0.550781 3.222656 -0.617188 3.054688 -0.628906 L 2.347656 -0.679688 L 2.347656 -7.574219 C 2.347656 -7.730469 2.230469 -7.859375 2.074219 -7.859375 L 0.796875 -7.859375 C 0.609375 -7.859375 0.558594 -7.789062 0.558594 -7.605469 L 0.558594 -7.457031 C 0.558594 -7.269531 0.617188 -7.203125 0.796875 -7.203125 L 1.503906 -7.164062 L 1.503906 -0.679688 L 0.796875 -0.628906 C 0.617188 -0.617188 0.558594 -0.550781 0.558594 -0.363281 L 0.558594 -0.253906 C 0.558594 -0.0703125 0.609375 0 0.796875 0 Z M 0.796875 0 "/></g></g></g><g fill="#292929" fill-opacity="1"><g transform="translate(245.282464, 219.248068)"><g><path d="M 2.269531 0.117188 C 3.242188 0.117188 3.773438 -0.285156 4.105469 -0.71875 C 4.164062 -0.246094 4.539062 0 5.136719 -0.03125 C 5.265625 -0.0390625 5.34375 -0.167969 5.335938 -0.3125 L 5.316406 -0.550781 C 5.304688 -0.660156 5.238281 -0.757812 5.128906 -0.777344 C 4.804688 -0.824219 4.765625 -1.257812 4.765625 -1.847656 L 4.753906 -4 C 4.753906 -5.050781 4.019531 -5.5625 2.542969 -5.53125 C 1.511719 -5.5 0.738281 -5.097656 0.738281 -4.246094 C 0.738281 -3.722656 0.992188 -3.4375 1.433594 -3.429688 C 1.867188 -3.429688 2.0625 -3.597656 2.0625 -4 C 2.0625 -4.371094 1.894531 -4.519531 1.542969 -4.488281 C 1.601562 -4.765625 2.121094 -4.882812 2.542969 -4.894531 C 3.515625 -4.914062 3.910156 -4.46875 3.910156 -4.085938 C 3.910156 -3.703125 3.675781 -3.332031 2.4375 -3.113281 C 1.207031 -2.878906 0.558594 -2.417969 0.558594 -1.464844 C 0.558594 -0.472656 1.21875 0.117188 2.269531 0.117188 Z M 1.40625 -1.503906 C 1.386719 -2.042969 1.808594 -2.359375 2.503906 -2.476562 C 3.125 -2.5625 3.820312 -2.761719 3.929688 -3.007812 L 3.921875 -1.886719 C 3.910156 -1.140625 3.339844 -0.609375 2.476562 -0.570312 C 1.816406 -0.53125 1.414062 -0.902344 1.40625 -1.503906 Z M 1.40625 -1.503906 "/></g></g></g><g fill="#292929" fill-opacity="1"><g transform="translate(250.823578, 219.248068)"><g><path d="M 0.785156 0 L 2.976562 0 C 3.105469 0 3.152344 -0.0703125 3.152344 -0.253906 L 3.152344 -0.363281 C 3.152344 -0.550781 3.105469 -0.617188 2.988281 -0.628906 L 2.328125 -0.679688 L 2.328125 -2.378906 C 2.328125 -4.027344 2.691406 -4.753906 3.566406 -4.753906 C 4.507812 -4.753906 4.746094 -4.332031 4.746094 -2.867188 L 4.753906 -0.679688 L 4.097656 -0.628906 C 3.980469 -0.617188 3.929688 -0.550781 3.929688 -0.363281 L 3.929688 -0.253906 C 3.929688 -0.0703125 3.980469 0 4.097656 0 L 6.179688 0 C 6.355469 0 6.40625 -0.0703125 6.40625 -0.253906 L 6.40625 -0.363281 C 6.40625 -0.550781 6.355469 -0.617188 6.167969 -0.628906 L 5.601562 -0.679688 L 5.601562 -2.886719 C 5.589844 -4.980469 5.078125 -5.5625 3.664062 -5.5625 C 3.066406 -5.5625 2.683594 -5.316406 2.328125 -4.773438 L 2.328125 -7.574219 C 2.328125 -7.730469 2.210938 -7.859375 2.0625 -7.859375 L 0.785156 -7.859375 C 0.609375 -7.859375 0.550781 -7.789062 0.550781 -7.605469 L 0.550781 -7.457031 C 0.550781 -7.269531 0.609375 -7.203125 0.777344 -7.203125 L 1.484375 -7.164062 L 1.484375 -0.679688 L 0.777344 -0.628906 C 0.609375 -0.617188 0.550781 -0.550781 0.550781 -0.363281 L 0.550781 -0.253906 C 0.550781 -0.0703125 0.609375 0 0.785156 0 Z M 0.785156 0 "/></g></g></g><g fill="#292929" fill-opacity="1"><g transform="translate(257.661546, 219.248068)"><g/></g></g><g fill="#292929" fill-opacity="1"><g transform="translate(261.778081, 219.248068)"><g><path d="M 3.664062 -7.003906 C 1.550781 -7.003906 0.6875 -5.804688 0.6875 -3.378906 C 0.6875 -1.003906 1.550781 0.175781 3.664062 0.175781 C 5.757812 0.175781 6.613281 -1.003906 6.613281 -3.378906 C 6.613281 -5.804688 5.757812 -7.003906 3.664062 -7.003906 Z M 1.542969 -3.359375 C 1.542969 -5.265625 2.28125 -6.21875 3.664062 -6.21875 C 5.039062 -6.21875 5.757812 -5.265625 5.757812 -3.359375 C 5.757812 -1.503906 5.039062 -0.589844 3.664062 -0.589844 C 2.28125 -0.589844 1.542969 -1.503906 1.542969 -3.359375 Z M 1.542969 -3.359375 "/></g></g></g><g fill="#292929" fill-opacity="1"><g transform="translate(269.077825, 219.248068)"><g><path d="M 0.785156 0 L 2.976562 0 C 3.105469 0 3.152344 -0.0703125 3.152344 -0.253906 L 3.152344 -0.363281 C 3.152344 -0.550781 3.105469 -0.617188 2.988281 -0.628906 L 2.328125 -0.679688 L 2.328125 -2.378906 C 2.328125 -4.027344 2.691406 -4.753906 3.566406 -4.753906 C 4.507812 -4.753906 4.746094 -4.332031 4.746094 -2.867188 L 4.753906 -0.679688 L 4.097656 -0.628906 C 3.980469 -0.617188 3.929688 -0.550781 3.929688 -0.363281 L 3.929688 -0.253906 C 3.929688 -0.0703125 3.980469 0 4.097656 0 L 6.179688 0 C 6.355469 0 6.40625 -0.0703125 6.40625 -0.253906 L 6.40625 -0.363281 C 6.40625 -0.550781 6.355469 -0.617188 6.167969 -0.628906 L 5.601562 -0.679688 L 5.601562 -2.886719 C 5.589844 -4.980469 5.078125 -5.5625 3.773438 -5.5625 C 3.066406 -5.5625 2.683594 -5.316406 2.328125 -4.714844 C 2.328125 -4.882812 2.320312 -5.058594 2.289062 -5.21875 C 2.269531 -5.324219 2.171875 -5.402344 2.0625 -5.402344 L 0.785156 -5.402344 C 0.609375 -5.402344 0.550781 -5.335938 0.550781 -5.148438 L 0.550781 -5 C 0.550781 -4.8125 0.609375 -4.746094 0.777344 -4.746094 L 1.484375 -4.714844 L 1.484375 -0.679688 L 0.777344 -0.628906 C 0.609375 -0.617188 0.550781 -0.550781 0.550781 -0.363281 L 0.550781 -0.253906 C 0.550781 -0.0703125 0.609375 0 0.785156 0 Z M 0.785156 0 "/></g></g></g><g fill="#292929" fill-opacity="1"><g transform="translate(275.915793, 219.248068)"><g><path d="M 0.796875 0 L 3.046875 0 C 3.222656 0 3.28125 -0.0703125 3.28125 -0.253906 L 3.28125 -0.363281 C 3.28125 -0.550781 3.222656 -0.617188 3.054688 -0.628906 L 2.347656 -0.679688 L 2.347656 -7.574219 C 2.347656 -7.730469 2.230469 -7.859375 2.074219 -7.859375 L 0.796875 -7.859375 C 0.609375 -7.859375 0.558594 -7.789062 0.558594 -7.605469 L 0.558594 -7.457031 C 0.558594 -7.269531 0.617188 -7.203125 0.796875 -7.203125 L 1.503906 -7.164062 L 1.503906 -0.679688 L 0.796875 -0.628906 C 0.617188 -0.617188 0.558594 -0.550781 0.558594 -0.363281 L 0.558594 -0.253906 C 0.558594 -0.0703125 0.609375 0 0.796875 0 Z M 0.796875 0 "/></g></g></g><g fill="#292929" fill-opacity="1"><g transform="translate(279.757239, 219.248068)"><g><path d="M 0.796875 0 L 3.046875 0 C 3.222656 0 3.28125 -0.0703125 3.28125 -0.253906 L 3.28125 -0.363281 C 3.28125 -0.550781 3.222656 -0.617188 3.054688 -0.628906 L 2.347656 -0.679688 L 2.347656 -5.117188 C 2.347656 -5.277344 2.230469 -5.402344 2.074219 -5.402344 L 0.796875 -5.402344 C 0.609375 -5.402344 0.558594 -5.335938 0.558594 -5.148438 L 0.558594 -5 C 0.558594 -4.8125 0.617188 -4.746094 0.796875 -4.746094 L 1.503906 -4.714844 L 1.503906 -0.679688 L 0.796875 -0.628906 C 0.617188 -0.617188 0.558594 -0.550781 0.558594 -0.363281 L 0.558594 -0.253906 C 0.558594 -0.0703125 0.609375 0 0.796875 0 Z M 1.160156 -7.289062 C 1.160156 -6.816406 1.335938 -6.582031 1.808594 -6.582031 C 2.28125 -6.582031 2.464844 -6.816406 2.464844 -7.289062 C 2.464844 -7.769531 2.28125 -7.996094 1.808594 -7.996094 C 1.335938 -7.996094 1.160156 -7.769531 1.160156 -7.289062 Z M 1.160156 -7.289062 "/></g></g></g><g fill="#292929" fill-opacity="1"><g transform="translate(283.598686, 219.248068)"><g><path d="M 0.785156 0 L 2.976562 0 C 3.105469 0 3.152344 -0.0703125 3.152344 -0.253906 L 3.152344 -0.363281 C 3.152344 -0.550781 3.105469 -0.617188 2.988281 -0.628906 L 2.328125 -0.679688 L 2.328125 -2.378906 C 2.328125 -4.027344 2.691406 -4.753906 3.566406 -4.753906 C 4.507812 -4.753906 4.746094 -4.332031 4.746094 -2.867188 L 4.753906 -0.679688 L 4.097656 -0.628906 C 3.980469 -0.617188 3.929688 -0.550781 3.929688 -0.363281 L 3.929688 -0.253906 C 3.929688 -0.0703125 3.980469 0 4.097656 0 L 6.179688 0 C 6.355469 0 6.40625 -0.0703125 6.40625 -0.253906 L 6.40625 -0.363281 C 6.40625 -0.550781 6.355469 -0.617188 6.167969 -0.628906 L 5.601562 -0.679688 L 5.601562 -2.886719 C 5.589844 -4.980469 5.078125 -5.5625 3.773438 -5.5625 C 3.066406 -5.5625 2.683594 -5.316406 2.328125 -4.714844 C 2.328125 -4.882812 2.320312 -5.058594 2.289062 -5.21875 C 2.269531 -5.324219 2.171875 -5.402344 2.0625 -5.402344 L 0.785156 -5.402344 C 0.609375 -5.402344 0.550781 -5.335938 0.550781 -5.148438 L 0.550781 -5 C 0.550781 -4.8125 0.609375 -4.746094 0.777344 -4.746094 L 1.484375 -4.714844 L 1.484375 -0.679688 L 0.777344 -0.628906 C 0.609375 -0.617188 0.550781 -0.550781 0.550781 -0.363281 L 0.550781 -0.253906 C 0.550781 -0.0703125 0.609375 0 0.785156 0 Z M 0.785156 0 "/></g></g></g><g fill="#292929" fill-opacity="1"><g transform="translate(290.436653, 219.248068)"><g><path d="M 3.015625 0.167969 C 3.839844 0.167969 4.753906 -0.128906 4.921875 -1.109375 C 4.953125 -1.335938 4.832031 -1.550781 4.617188 -1.550781 L 4.429688 -1.550781 C 4.265625 -1.550781 4.175781 -1.453125 4.136719 -1.316406 C 4.039062 -0.765625 3.476562 -0.617188 3.015625 -0.617188 C 2.054688 -0.617188 1.542969 -1.226562 1.492188 -2.328125 L 4.695312 -2.347656 C 4.894531 -2.347656 5.058594 -2.496094 5.058594 -2.722656 C 5 -4.65625 4.410156 -5.550781 2.886719 -5.550781 C 1.386719 -5.550781 0.628906 -4.8125 0.628906 -2.484375 C 0.628906 -0.667969 1.53125 0.167969 3.015625 0.167969 Z M 1.503906 -3.027344 C 1.550781 -4.214844 1.976562 -4.734375 2.886719 -4.734375 C 3.859375 -4.734375 4.164062 -4.214844 4.195312 -3.027344 Z M 1.503906 -3.027344 "/></g></g></g></svg>